<svg width="80" height="81" viewBox="0 0 80 81" fill="none" xmlns="http://www.w3.org/2000/svg">
<path d="M55.0344 15.8489C49.5997 15.8489 45.1782 20.2705 45.1782 25.7052C45.1782 31.1399 49.5998 35.5617 55.0344 35.5617C60.4692 35.5617 64.8905 31.1401 64.8905 25.7054C64.8905 20.2707 60.4692 15.8489 55.0344 15.8489Z" fill="#D6D6D6"/>
<path d="M77.5854 0.814941H2.41548C1.12356 0.814941 0.0761719 1.86233 0.0761719 3.15425V78.3241C0.0761719 79.616 1.12356 80.6634 2.41548 80.6634H77.5854C78.8774 80.6634 79.9247 79.616 79.9247 78.3241V3.15425C79.9247 1.86233 78.8774 0.814941 77.5854 0.814941ZM75.246 64.346L60.5899 46.7587C60.1887 46.277 59.6107 45.9766 58.986 45.9248C58.3609 45.8729 57.7416 46.0744 57.2666 46.4834L45.7763 56.3765L25.5207 31.7367C25.0312 31.1413 24.2792 30.8253 23.5122 30.8916C22.7443 30.9581 22.0584 31.3983 21.6783 32.0691L4.75479 61.9341V5.49356H75.246V64.346Z" fill="#D6D6D6"/>
</svg>
