<svg width="311" height="311" viewBox="0 0 311 311" fill="none" xmlns="http://www.w3.org/2000/svg">
<path fill-rule="evenodd" clip-rule="evenodd" d="M300.218 172.468C295.729 138.92 271.74 113.501 246.672 90.6822C223.119 69.2419 196.419 51.8323 164.649 49.0597C129.729 46.0122 94.2229 53.1083 66.8899 74.9922C36.3992 99.4052 12.9239 133.551 10.5152 172.468C7.97831 213.462 21.6616 257.366 54.0321 282.764C84.2951 306.509 126.144 293.989 164.649 293.401C202.135 292.829 243.988 304.362 271.929 279.438C300.582 253.878 305.302 210.466 300.218 172.468Z" fill="#A0CEDE" fill-opacity="0.2"/>
<path d="M53.2566 48.5404C43.5492 48.5404 35.6798 40.6938 35.6798 31.0145C35.6798 21.3352 43.5492 13.4886 53.2566 13.4886C62.9641 13.4886 70.8335 21.3352 70.8335 31.0145C70.8335 40.6938 62.9641 48.5404 53.2566 48.5404Z" fill="#A0CEDE" fill-opacity="0.2"/>
<path d="M35.6793 86.6217C30.6459 86.6217 26.5655 82.553 26.5655 77.5342C26.5655 72.5153 30.6459 68.4467 35.6793 68.4467C40.7128 68.4467 44.7932 72.5153 44.7932 77.5342C44.7932 82.553 40.7128 86.6217 35.6793 86.6217Z" fill="#A0CEDE" fill-opacity="0.2"/>
<path d="M185.271 279.43L45.8939 198.916L45.8166 161.673L185.194 242.186L185.271 279.43Z" fill="white"/>
<path d="M287.741 169.504L197.276 221.421L57.8987 140.907L148.363 88.9913L287.741 169.504Z" fill="#F2F2F2"/>
<path d="M45.9278 160.289L45.874 160.256C45.911 159.761 45.9715 159.253 46.0522 158.765V158.738C46.1396 158.214 46.2372 157.702 46.3582 157.187C46.4524 156.8 46.57 156.415 46.6944 156.028C46.7348 155.891 46.765 155.757 46.8088 155.623C46.8323 155.543 46.8491 155.463 46.8726 155.386C47.1147 154.634 47.3938 153.885 47.7032 153.147C47.7233 153.1 47.7569 153.056 47.7805 153.01C48.3874 151.607 49.1071 150.256 49.9324 148.969C50.114 148.681 50.2922 148.41 50.4805 148.133C51.3248 146.873 52.2729 145.685 53.315 144.58C53.338 144.549 53.3626 144.519 53.3889 144.49C53.9218 143.936 54.4829 143.409 55.0701 142.912C55.1542 142.839 55.245 142.779 55.329 142.712C55.4131 142.645 55.561 142.531 55.6653 142.438C55.9275 142.234 56.1864 142.017 56.4554 141.826C56.8858 141.522 57.3229 141.238 57.7634 140.981C57.8037 140.96 57.8374 140.927 57.8743 140.907L197.275 221.42C196.499 221.876 195.757 222.388 195.056 222.951L194.703 223.222C193.996 223.806 193.322 224.43 192.686 225.09C191.646 226.196 190.699 227.384 189.854 228.643C189.666 228.917 189.485 229.194 189.306 229.478C188.482 230.764 187.761 232.112 187.148 233.509C186.778 234.363 186.454 235.236 186.176 236.123C186.136 236.257 186.102 236.394 186.065 236.527C185.803 237.409 185.594 238.305 185.44 239.211V239.251C185.283 240.217 185.204 241.194 185.204 242.173L45.8169 161.669C45.8169 161.202 45.8337 160.73 45.874 160.252L45.9278 160.289Z" fill="white"/>
<path d="M163.736 253.102L67.4107 197.459L67.3535 178.371L163.679 234.017L163.736 253.102Z" fill="#343457"/>
<path d="M197.275 221.42L287.74 169.504L287.857 220.554L185.271 279.429L185.194 242.186C184.881 232.934 190.58 225.26 197.275 221.42Z" fill="#E3E6E3"/>
<path d="M163.587 245.068L115.391 273.384L115.381 269.908L163.577 241.595L163.587 245.068Z" fill="#3C3B63"/>
<path d="M115.39 273.384L26.3063 219.306L26.2962 215.83L115.38 269.908L115.39 273.384Z" fill="#6B6AA1"/>
<path d="M263.709 171.062L239.984 184.591L121.544 116.174L145.273 102.644L263.709 171.062Z" fill="#343457"/>
<path d="M226.955 192.583L203.227 206.113L84.7867 137.692L108.515 124.166L226.955 192.583Z" fill="#D7EEF9"/>
<path d="M274.344 102.19L253.077 177.068L248.45 179.915L270.975 102.644L274.344 102.19Z" fill="#3C3B63"/>
<path d="M274.344 102.19L270.975 102.644L163.335 40.4638L166.704 40.0092L274.344 102.19Z" fill="#6B6AA2"/>
<path d="M163.678 241.535L115.381 269.907L26.2982 215.834L72.9339 189.114L163.678 241.535Z" fill="#807FD4"/>
<path d="M226.955 192.583L203.227 206.113L159.025 180.598L182.75 167.068L226.955 192.583Z" fill="#EBF4F8"/>
<path d="M181.505 166.298L157.777 179.825L151.385 176.141L175.11 162.612L181.505 166.298Z" fill="#EBF4F8"/>
<path d="M270.975 102.645L251.406 170.247L143.766 108.066L163.335 40.4643L270.975 102.645Z" fill="#807FD5"/>
<path d="M251.406 170.247L248.632 179.826L239.984 184.592L138.575 126.011L143.766 108.066L251.406 170.247Z" fill="#58579C"/>
<path d="M256.583 110.796L236.137 182.368L233.733 181.386L253.793 111.174L256.583 110.796Z" fill="#F1F1F2"/>
<path d="M256.583 110.796L253.792 111.173L164.635 59.6683L167.423 59.2939L256.583 110.796Z" fill="#D8D8D8"/>
<path d="M253.793 111.174L233.811 181.208L144.055 129.229L164.636 59.6684L253.793 111.174Z" fill="white"/>
<path d="M245.545 168.404L240.911 165.727L256.583 110.796L245.545 168.404Z" fill="#58579C"/>
<path d="M32.6272 214.898L81.2122 186.326L163.883 234.151L115.172 265.616C115.098 265.552 32.6272 214.898 32.6272 214.898Z" fill="white"/>
<path d="M74.844 216.731L76.2349 215.979L77.5882 216.803L76.1973 217.555L74.844 216.731Z" fill="black"/>
<path d="M84.5059 214.619L80.3336 216.876L78.9785 216.05L77.6265 215.227L79.0163 214.475L80.3683 215.299L84.5434 213.041L85.8985 213.866L87.2883 213.115L85.9332 212.29L84.5812 211.466L85.974 210.713L87.3259 211.536L88.7157 210.785L90.0708 211.61L88.681 212.362L90.0332 213.185L91.423 212.434L92.7781 213.259L89.9955 214.764L88.6404 213.938L87.2506 214.69L88.6057 215.515L87.2132 216.268L85.8581 215.443L84.5059 214.619Z" fill="black"/>
<path d="M83.0769 216.946L84.468 216.193L85.8216 217.018L84.4305 217.77L83.0769 216.946Z" fill="black"/>
<path d="M91.3463 215.587L92.6983 216.41L94.0534 217.235L92.6636 217.987L91.3085 217.161L89.9565 216.338L88.6044 215.515L89.9941 214.763L91.3463 215.587Z" fill="black"/>
<path d="M85.8215 217.02L87.2126 216.267L88.5662 217.092L87.1751 217.844L85.8215 217.02Z" fill="black"/>
<path d="M81.6104 220.851L80.2582 220.028L78.9031 219.203L81.6855 217.698L83.0405 218.523L84.3927 219.347L87.1753 217.842L88.5272 218.666L87.1345 219.419L88.4896 220.244L87.0998 220.996L85.7447 220.17L84.3519 220.923L83 220.1L81.6104 220.851Z" fill="black"/>
<path d="M94.0921 215.658L92.7394 214.834L94.1296 214.083L95.4824 214.906L96.838 215.732L95.4478 216.484L94.0921 215.658Z" fill="black"/>
<path d="M91.2711 218.74L92.6231 219.564L93.9781 220.389L91.1956 221.894L89.8405 221.068L91.2333 220.315L89.8813 219.492L88.5262 218.667L89.916 217.915L91.2711 218.74Z" fill="black"/>
<path d="M84.3165 222.5L82.9609 221.674L84.3508 220.923L85.7065 221.748L87.0589 222.572L85.669 223.323L84.3165 222.5Z" fill="black"/>
<path d="M78.7156 227.083L80.1067 226.331L81.4603 227.156L80.0691 227.908L78.7156 227.083Z" fill="black"/>
<path d="M75.9326 228.589L77.3237 227.836L78.6773 228.661L77.2862 229.413L75.9326 228.589Z" fill="black"/>
<path d="M75.898 230.165L77.2891 229.413L78.6426 230.237L77.2515 230.989L75.898 230.165Z" fill="black"/>
<path d="M85.5605 228.053L84.1677 228.806L82.8126 227.98L81.4605 227.157L82.8532 226.404L81.4981 225.579L82.8879 224.827L84.243 225.652L85.5952 226.476L84.2054 227.227L85.5605 228.053Z" fill="black"/>
<path d="M80.032 229.483L81.4231 228.73L82.7767 229.555L81.3855 230.307L80.032 229.483Z" fill="black"/>
<path d="M88.3419 226.549L86.9495 227.302L85.5945 226.477L86.9869 225.724L85.6349 224.9L84.2799 224.075L85.6696 223.324L87.0245 224.149L88.4142 223.398L87.0592 222.572L88.4519 221.819L89.8068 222.644L91.1589 223.468L96.7232 220.459L98.0782 221.284L99.4678 220.533L98.1129 219.707L96.7608 218.884L95.3712 219.635L94.0162 218.81L100.97 215.05L102.325 215.875L98.1532 218.131L99.5053 218.954L103.677 216.698L105.032 217.524L102.25 219.028L103.602 219.851L102.212 220.603L103.567 221.428L104.919 222.251L106.309 221.5L107.661 222.323L106.271 223.075L107.626 223.9L104.844 225.405L103.489 224.579L104.879 223.828L103.527 223.004L102.137 223.756L100.785 222.933L102.175 222.181L100.82 221.356L99.43 222.107L100.785 222.933L99.3923 223.686L98.0374 222.86L96.6855 222.037L91.1212 225.046L89.7662 224.221L88.3766 224.972L89.7315 225.798L91.1212 225.046L92.473 225.869L89.6937 227.372L88.3419 226.549Z" fill="black"/>
<path d="M104.992 219.098L106.383 218.346L107.736 219.17L106.345 219.923L104.992 219.098Z" fill="black"/>
<path d="M92.4722 225.869L95.2556 224.364L96.6083 225.188L93.825 226.693L92.4722 225.869Z" fill="black"/>
<path d="M79.9549 232.638L82.7383 231.133L84.091 231.956L81.3076 233.461L79.9549 232.638Z" fill="black"/>
<path d="M98.0015 224.437L99.3926 223.684L100.746 224.509L99.3548 225.261L98.0015 224.437Z" fill="black"/>
<path d="M109.05 221.572L107.698 220.749L109.082 220L107.721 219.172L110.512 217.662L106.459 215.194L105.067 215.947L102.374 214.307L109.328 210.547L113.376 213.012L110.597 214.515L109.242 213.689L110.631 212.938L109.279 212.115L107.89 212.866L109.242 213.689L107.849 214.443L109.204 215.268L110.597 214.515L111.949 215.338L114.728 213.835L121.493 217.956L120.104 218.707L114.684 215.406L111.902 216.911L114.606 218.558L115.999 217.805L117.353 218.63L114.571 220.134L115.923 220.958L114.531 221.711L113.178 220.887L111.78 221.644L110.425 220.819L109.05 221.572ZM113.225 219.314L111.873 218.491L110.48 219.244L111.832 220.068L113.225 219.314Z" fill="black"/>
<path d="M96.572 226.764L97.9622 226.013L99.3149 226.836L100.67 227.662L99.2803 228.414L97.9247 227.588L96.572 226.764Z" fill="black"/>
<path d="M88.1889 232.852L86.7961 233.605L88.1512 234.43L86.7614 235.182L88.1133 236.005L89.4684 236.831L92.251 235.326L93.6032 236.149L89.4281 238.407L88.0759 237.584L86.7208 236.758L85.3688 235.935L84.0137 235.11L82.6616 234.286L86.8367 232.028L88.1889 232.852Z" fill="black"/>
<path d="M107.66 222.322L109.05 221.571L110.405 222.396L111.798 221.643L113.15 222.466L110.368 223.971L111.723 224.796L113.075 225.62L111.685 226.371L110.333 225.548L108.94 226.301L107.585 225.476L108.978 224.723L107.626 223.899L109.015 223.147L107.66 222.322Z" fill="black"/>
<path d="M102.062 226.908L100.706 226.083L102.096 225.331L103.452 226.157L104.805 226.981L103.415 227.732L102.062 226.908Z" fill="black"/>
<path d="M103.375 229.309L104.727 230.133L106.082 230.958L104.692 231.709L103.337 230.884L101.985 230.061L100.63 229.235L102.02 228.484L103.375 229.309Z" fill="black"/>
<path d="M96.4221 233.068L97.8132 232.315L99.1668 233.14L97.7757 233.892L96.4221 233.068Z" fill="black"/>
<path d="M93.64 234.574L92.2853 233.749L90.8957 234.5L89.5436 233.677L95.1082 230.668L93.7532 229.842L92.3484 230.602L90.9964 229.779L89.6067 230.53L90.9588 231.354L89.5664 232.107L86.8536 230.454L85.4639 231.206L84.109 230.381L89.6855 227.365L91.0404 228.19L93.8195 226.687L95.1715 227.511L93.7819 228.262L96.4887 229.911L99.271 228.406L100.623 229.23L99.2304 229.983L104.644 233.28L106.037 232.527L107.389 233.35L104.607 234.855L103.255 234.031L101.865 234.783L103.217 235.606L101.812 236.366L100.46 235.542L99.0706 236.294L101.778 237.942L107.351 234.928L108.703 235.752L100.36 240.264L99.0075 239.44L100.397 238.689L97.6902 237.04L96.3005 237.792L93.5937 236.143L94.9834 235.392L93.64 234.574ZM97.7397 235.469L101.911 233.213L97.8497 230.74L93.6779 232.996L97.7397 235.469Z" fill="black"/>
<path d="M114.391 228.02L113.039 227.196L114.429 226.445L115.781 227.268L117.136 228.093L118.488 228.917L119.84 229.74L121.195 230.565L119.805 231.317L118.45 230.492L117.098 229.668L115.705 230.421L117.058 231.245L115.668 231.996L114.316 231.173L112.964 230.35L115.746 228.845L114.391 228.02Z" fill="black"/>
<path d="M108.826 231.028L107.474 230.204L108.864 229.453L107.509 228.627L106.119 229.379L104.767 228.555L107.55 227.051L108.902 227.874L110.257 228.7L111.647 227.948L112.999 228.771L110.216 230.276L111.571 231.101L112.923 231.925L114.276 232.748L112.886 233.5L111.534 232.676L108.751 234.181L107.399 233.357L110.181 231.853L108.826 231.028Z" fill="black"/>
<path d="M96.2688 239.372L97.6599 238.62L99.0135 239.444L97.6224 240.197L96.2688 239.372Z" fill="black"/>
<path d="M96.2347 240.951L94.8415 241.704L93.489 240.88L92.1334 240.055L94.9167 238.55L96.2724 239.375L94.8822 240.127L96.2347 240.951Z" fill="black"/>
<path d="M98.975 241.022L100.368 240.269L101.723 241.094L97.5476 243.352L96.1926 242.527L97.5852 241.774L96.2328 240.95L97.6226 240.199L98.975 241.022Z" fill="black"/>
<path d="M111.494 234.252L112.885 233.5L114.239 234.324L112.848 235.076L111.494 234.252Z" fill="black"/>
<path d="M108.712 235.755L110.103 235.003L111.457 235.827L110.066 236.58L108.712 235.755Z" fill="black"/>
<path d="M96.8701 214.156L88.7396 209.205L98.4766 203.939L107.95 209.709L98.2133 214.974L96.8701 214.156ZM105.218 209.642L98.451 205.521L91.4872 209.287L98.2537 213.408L105.218 209.642Z" fill="black"/>
<path d="M94.2437 209.354L98.4158 207.098L102.475 209.57L98.3029 211.826L94.2437 209.354Z" fill="black"/>
<path d="M73.4441 217.475L82.9179 223.244L73.1779 228.511L63.7041 222.742L73.4441 217.475ZM67.8249 223.64L73.2363 226.935L80.1699 223.186L73.4034 219.065L66.4698 222.815L67.8249 223.64Z" fill="black"/>
<path d="M69.2075 222.891L73.3796 220.635L77.4389 223.107L73.2668 225.363L69.2075 222.891Z" fill="black"/>
<path d="M124.198 219.603L132.319 224.549L122.582 229.815L113.109 224.045L122.846 218.78L124.198 219.603ZM115.854 224.116L122.62 228.237L129.575 224.476L122.808 220.355L115.854 224.116Z" fill="black"/>
<path d="M118.602 224.187L122.774 221.931L126.833 224.403L122.661 226.659L118.602 224.187Z" fill="black"/>
<path d="M103.611 203.46L104.882 202.773L98.6987 199.007L92.3785 202.425L93.6496 203.199L98.6987 200.468L103.611 203.46Z" fill="#FD6E35"/>
<path d="M61.2477 226.369L62.5188 225.682L57.6063 222.69L62.6908 219.94L61.4197 219.166L55.0641 222.603L61.2477 226.369Z" fill="#FD6E35"/>
<path d="M97.5548 248.48L103.91 245.044L102.639 244.269L97.5548 247.019L92.6423 244.027L91.3712 244.715L97.5548 248.48Z" fill="#FD6E35"/>
<path d="M134.872 228.301L141.193 224.883L135.009 221.117L133.738 221.804L138.65 224.796L133.601 227.527L134.872 228.301Z" fill="#FD6E35"/>
<g style="mix-blend-mode:multiply" opacity="0.21">
<path d="M163.679 234.018L163.736 241.504L163.679 241.534L72.9351 189.113L79.3875 185.323L163.679 234.018Z" fill="#58579C"/>
</g>
<g style="mix-blend-mode:multiply" opacity="0.16">
<path d="M237.327 169.504L234.116 181.359L143.752 129.075L147.461 117.822L237.327 169.504Z" fill="#58579C"/>
</g>
<ellipse rx="2.88024" ry="2.8691" transform="matrix(-0.867139 -0.498067 -2.21445e-08 1 173.022 255.335)" fill="#FD6E35"/>
<ellipse rx="2.88024" ry="2.8691" transform="matrix(-0.867139 -0.498067 -2.21445e-08 1 173.022 246.728)" fill="#FD6E35"/>
</svg>
