<svg width="311" height="310" viewBox="0 0 311 310" fill="none" xmlns="http://www.w3.org/2000/svg">
<path d="M56.8483 74.0823C56.8483 80.2327 51.7521 85.2842 45.5479 85.2842C39.3438 85.2842 34.2476 80.2327 34.2476 74.0823C34.2476 67.932 39.3438 62.8804 45.5479 62.8804C51.7521 62.8804 56.8483 67.7128 56.8483 74.0823Z" fill="#A0CEDE" fill-opacity="0.2"/>
<path d="M289.503 41.1357C295.01 41.1357 299.474 36.7104 299.474 31.2516C299.474 25.7927 295.01 21.3675 289.503 21.3675C283.996 21.3675 279.532 25.7927 279.532 31.2516C279.532 36.7104 283.996 41.1357 289.503 41.1357Z" fill="#A0CEDE" fill-opacity="0.2"/>
<path d="M303.906 211.581C305.457 175.998 287.731 145.687 260.92 128.334C255.824 125.04 252.722 119.768 252.057 113.838C252.057 113.618 252.057 113.179 251.835 112.959C246.96 74.0819 210.179 46.6261 170.96 51.8976C133.513 56.9494 106.481 76.4981 110.47 114.277C110.47 114.497 110.47 114.716 110.47 114.936C111.135 125.26 102.936 133.826 92.7438 134.045C90.5276 134.045 88.312 134.265 86.0964 134.485C41.7809 139.317 7.78125 188.333 7.78125 217.26C9.99703 237.687 16.48 257.86 46.6699 276.129C76.8598 294.399 252.162 292.382 276.42 271.816C300.679 251.249 302.798 234.424 303.906 211.581Z" fill="#A0CEDE" fill-opacity="0.2"/>
<path d="M262.919 236.293H69.1514V107.75C69.1514 105.668 70.871 103.774 73.1644 103.774H258.905C261.007 103.774 262.919 105.478 262.919 107.75V236.293Z" fill="#807FD5"/>
<path d="M178.264 228.939H153.517V230.827H178.264V228.939Z" fill="#B4B3E6"/>
<path d="M178.836 231.392H153.136V228.373H178.836V231.392ZM154.088 230.448H177.884V229.505H154.088V230.448Z" fill="#58579C"/>
<path d="M167.413 109.675C167.413 110.43 166.651 111.184 165.89 111.184C165.129 111.184 164.367 110.618 164.367 109.675C164.367 108.731 165.129 108.165 165.89 108.165C166.842 108.165 167.413 108.92 167.413 109.675Z" fill="#B4B3E6"/>
<path d="M282.776 259.509H48.6242C46.1495 259.509 44.0554 258.188 44.0554 256.49V251.772C44.0554 251.206 44.6265 250.829 45.388 250.829H286.393C287.154 250.829 287.725 251.206 287.725 251.772V256.49C287.725 258 285.441 259.509 282.776 259.509Z" fill="#58579C"/>
<path d="M282.776 259.887H48.6248C45.7693 259.887 43.4849 258.377 43.4849 256.302V251.584C43.4849 250.829 44.2463 250.263 45.1982 250.263H286.203C287.155 250.263 287.916 250.829 287.916 251.584V256.302C288.107 258.377 285.822 259.887 282.776 259.887ZM45.3885 251.206C44.8174 251.206 44.6271 251.395 44.6271 251.584V256.302C44.6271 257.623 46.5307 258.944 48.8152 258.944H282.967C285.251 258.944 287.345 257.623 287.345 256.302V251.584C287.345 251.395 286.965 251.206 286.584 251.206H45.3885Z" fill="#58579C"/>
<path d="M82.3195 226.297H249.652C251.937 226.297 254.031 224.41 254.031 221.956V118.921C254.031 116.657 252.127 114.581 249.652 114.581H82.3195C80.0353 114.581 77.9409 116.468 77.9409 118.921V222.145C77.9409 224.41 79.8449 226.297 82.3195 226.297Z" fill="white"/>
<path d="M249.652 226.863H82.3193C79.6544 226.863 77.5601 224.787 77.5601 222.145V118.921C77.5601 116.279 79.6544 114.203 82.3193 114.203H249.652C252.317 114.203 254.411 116.279 254.411 118.921V222.145C254.411 224.598 252.317 226.863 249.652 226.863ZM82.3193 115.147C80.2255 115.147 78.5118 116.845 78.5118 118.921V222.145C78.5118 224.221 80.2255 225.919 82.3193 225.919H249.652C251.746 225.919 253.46 224.221 253.46 222.145V118.921C253.46 116.845 251.746 115.147 249.652 115.147H82.3193Z" fill="#58579C"/>
<path d="M254.01 121.592V118.703C254.01 116.716 252.088 114.91 249.784 114.91H82.2855C79.9807 114.91 78.0601 116.536 78.0601 118.703V121.592H254.01Z" fill="#58579C"/>
<path d="M238.421 118.921C238.421 119.487 238.04 119.865 237.469 119.865C236.898 119.865 236.517 119.487 236.517 118.921C236.517 118.355 236.898 117.977 237.469 117.977C238.04 117.977 238.421 118.355 238.421 118.921Z" fill="white"/>
<path d="M241.276 119.865C241.802 119.865 242.228 119.442 242.228 118.921C242.228 118.4 241.802 117.977 241.276 117.977C240.751 117.977 240.325 118.4 240.325 118.921C240.325 119.442 240.751 119.865 241.276 119.865Z" fill="white"/>
<path d="M245.274 119.865C245.8 119.865 246.226 119.442 246.226 118.921C246.226 118.4 245.8 117.977 245.274 117.977C244.748 117.977 244.322 118.4 244.322 118.921C244.322 119.442 244.748 119.865 245.274 119.865Z" fill="white"/>
<path d="M70.136 235.921L44.8171 250.64L286.393 250.452L262.978 235.921H70.136Z" fill="#706FB7"/>
<path d="M46.1432 250.77L45.9544 250.213L45.7656 249.842L71.0636 235.18H71.2523H262.686L287.418 250.584L46.1432 250.77ZM71.2523 236.293L47.8423 249.842L283.831 249.656L262.308 236.293H71.2523Z" fill="#8281DB"/>
<path opacity="0.26" d="M102.118 235.922L85.3657 245.735L245.845 245.546L230.426 235.922H102.118Z" fill="#8281DB"/>
<path opacity="0.26" d="M83.4617 246.111L101.928 235.355H230.426L247.559 246.111H83.4617ZM102.308 236.299L87.2692 245.168H244.322L230.426 236.487L102.308 236.299Z" fill="#8281DB"/>
<path d="M278.017 110.994C277.636 110.994 277.256 110.806 276.875 110.617C276.494 110.429 276.494 110.051 276.494 109.674C276.494 109.296 276.685 108.919 276.875 108.73C277.256 108.541 277.446 108.353 278.017 108.353C278.398 108.353 278.779 108.541 279.159 108.73C279.35 108.919 279.54 109.296 279.54 109.674C279.54 110.051 279.35 110.429 279.159 110.617C278.779 110.994 278.398 110.994 278.017 110.994ZM279.35 100.238L279.159 106.088C279.159 106.654 278.588 107.221 278.017 107.221C277.446 107.221 276.875 106.843 276.875 106.088L276.685 100.238C276.685 99.6722 277.256 99.1058 277.827 99.1058H278.208C278.779 99.1058 279.35 99.6722 279.35 100.238Z" fill="white"/>
<path d="M167.094 161.867C176.289 161.867 183.743 154.497 183.743 145.404C183.743 136.312 176.289 128.942 167.094 128.942C157.899 128.942 150.444 136.312 150.444 145.404C150.444 154.497 157.899 161.867 167.094 161.867Z" fill="#FD6E35"/>
<path d="M172.19 139.183C172.19 141.971 169.904 144.98 167.085 144.98C164.266 144.98 161.982 141.971 161.982 139.183C161.982 136.396 164.268 134.418 167.087 134.418C169.906 134.418 172.19 136.395 172.19 139.183Z" fill="white"/>
<path d="M160.752 155.713H173.214C173.854 155.713 174.476 155.512 174.993 155.139C175.509 154.767 175.892 154.241 176.087 153.639L176.758 151.567C177.249 150.05 176.45 148.407 174.937 147.86C169.866 146.026 164.622 146.261 159.25 148.029C157.746 148.526 156.911 150.116 157.326 151.629L157.842 153.511C158.015 154.143 158.394 154.701 158.92 155.099C159.446 155.497 160.09 155.713 160.752 155.713V155.713Z" fill="white"/>
<path opacity="0.65" d="M196.877 173.056H135.528C135.341 173.056 135.189 173.206 135.189 173.391V182.156C135.189 182.341 135.341 182.492 135.528 182.492H196.877C197.064 182.492 197.216 182.341 197.216 182.156V173.391C197.216 173.206 197.064 173.056 196.877 173.056Z" fill="#EBF4F8"/>
<path opacity="0.65" d="M196.542 188.451H135.193C135.006 188.451 134.854 188.601 134.854 188.786V197.551C134.854 197.736 135.006 197.886 135.193 197.886H196.542C196.729 197.886 196.881 197.736 196.881 197.551V188.786C196.881 188.601 196.729 188.451 196.542 188.451Z" fill="#EBF4F8"/>
<path d="M196.564 203.776H135.505C135.146 203.776 134.854 203.968 134.854 204.205V215.819C134.854 216.056 135.146 216.248 135.505 216.248H196.564C196.924 216.248 197.216 216.056 197.216 215.819V204.205C197.216 203.968 196.924 203.776 196.564 203.776Z" fill="#FD6E35"/>
<path d="M158.899 175.578H137.923C137.725 175.578 137.565 175.787 137.565 176.045V179.178C137.565 179.435 137.725 179.645 137.923 179.645H158.899C159.096 179.645 159.257 179.435 159.257 179.178V176.045C159.257 175.787 159.096 175.578 158.899 175.578Z" fill="#FD6E35"/>
<path d="M155.866 212.271C155.488 212.271 155.156 212.234 154.87 212.161C154.585 212.088 154.32 211.998 154.075 211.89V210.718H154.188C154.435 210.928 154.707 211.089 155.005 211.201C155.303 211.314 155.592 211.37 155.872 211.37C155.943 211.37 156.036 211.363 156.15 211.347C156.267 211.332 156.361 211.307 156.432 211.274C156.518 211.237 156.591 211.185 156.65 211.119C156.71 211.05 156.74 210.961 156.74 210.851C156.74 210.727 156.691 210.627 156.594 210.549C156.497 210.472 156.381 210.416 156.246 210.381C156.079 210.337 155.899 210.295 155.707 210.255C155.517 210.215 155.34 210.167 155.174 210.109C154.792 209.975 154.519 209.794 154.353 209.566C154.188 209.339 154.105 209.055 154.105 208.713C154.105 208.251 154.3 207.878 154.691 207.594C155.081 207.307 155.569 207.164 156.154 207.164C156.447 207.164 156.738 207.193 157.028 207.253C157.319 207.312 157.579 207.393 157.809 207.494V208.62H157.699C157.516 208.463 157.292 208.331 157.028 208.223C156.765 208.115 156.495 208.06 156.217 208.06C156.109 208.06 156.011 208.068 155.925 208.084C155.839 208.099 155.749 208.129 155.654 208.173C155.577 208.208 155.509 208.261 155.452 208.332C155.397 208.4 155.369 208.478 155.369 208.564C155.369 208.689 155.413 208.79 155.502 208.865C155.592 208.938 155.765 209.004 156.021 209.063C156.187 209.101 156.346 209.137 156.498 209.173C156.652 209.208 156.817 209.256 156.991 209.318C157.333 209.442 157.587 209.608 157.752 209.818C157.92 210.025 158.004 210.3 158.004 210.642C158.004 211.132 157.811 211.526 157.425 211.824C157.041 212.122 156.521 212.271 155.866 212.271Z" fill="white"/>
<path d="M159.732 212.181H158.573V208.464H159.732V212.181ZM159.765 207.935H158.54V207.031H159.765V207.935Z" fill="white"/>
<path d="M162.84 211.01V209.325C162.782 209.298 162.712 209.276 162.628 209.259C162.544 209.241 162.46 209.232 162.376 209.232C162.098 209.232 161.889 209.323 161.747 209.504C161.608 209.682 161.539 209.933 161.539 210.255C161.539 210.416 161.549 210.553 161.569 210.665C161.591 210.776 161.63 210.874 161.688 210.96C161.743 211.044 161.815 211.108 161.903 211.152C161.993 211.194 162.108 211.215 162.247 211.215C162.351 211.215 162.452 211.197 162.552 211.162C162.653 211.126 162.749 211.076 162.84 211.01ZM163.998 211.754C163.998 212.098 163.948 212.391 163.849 212.631C163.75 212.872 163.614 213.059 163.442 213.194C163.27 213.331 163.063 213.429 162.823 213.489C162.582 213.55 162.315 213.581 162.022 213.581C161.775 213.581 161.54 213.565 161.317 213.532C161.096 213.501 160.904 213.464 160.741 213.422V212.492H160.877C160.934 212.514 161.001 212.539 161.079 212.565C161.158 212.592 161.238 212.616 161.317 212.638C161.412 212.662 161.505 212.682 161.595 212.697C161.686 212.713 161.778 212.721 161.873 212.721C162.069 212.721 162.233 212.7 162.363 212.658C162.495 212.618 162.595 212.561 162.661 212.486C162.727 212.408 162.773 212.317 162.8 212.211C162.826 212.107 162.84 211.976 162.84 211.817V211.748C162.709 211.862 162.558 211.955 162.386 212.026C162.216 212.094 162.041 212.128 161.86 212.128C161.379 212.128 161.007 211.972 160.744 211.658C160.484 211.345 160.354 210.868 160.354 210.228C160.354 209.937 160.394 209.676 160.473 209.444C160.555 209.212 160.667 209.015 160.811 208.852C160.947 208.695 161.113 208.575 161.307 208.491C161.501 208.405 161.703 208.362 161.913 208.362C162.103 208.362 162.272 208.386 162.422 208.434C162.573 208.483 162.709 208.548 162.833 208.63L162.876 208.464H163.998V211.754Z" fill="white"/>
<path d="M168.37 212.181H167.205V210.338C167.205 210.188 167.199 210.039 167.185 209.891C167.174 209.741 167.152 209.63 167.119 209.56C167.079 209.476 167.022 209.416 166.947 209.381C166.872 209.344 166.772 209.325 166.646 209.325C166.551 209.325 166.455 209.342 166.358 209.378C166.261 209.413 166.157 209.469 166.047 209.547V212.181H164.888V208.464H166.047V208.875C166.236 208.714 166.421 208.588 166.599 208.497C166.78 208.407 166.98 208.362 167.199 208.362C167.578 208.362 167.868 208.482 168.069 208.722C168.27 208.961 168.37 209.307 168.37 209.762V212.181Z" fill="white"/>
<path d="M174.669 212.181H173.51V211.771C173.31 211.938 173.125 212.066 172.958 212.155C172.79 212.241 172.59 212.284 172.359 212.284C171.99 212.284 171.702 212.168 171.495 211.936C171.289 211.702 171.187 211.352 171.187 210.884V208.464H172.352V210.308C172.352 210.5 172.356 210.656 172.365 210.778C172.376 210.899 172.4 211.002 172.438 211.086C172.473 211.163 172.527 211.221 172.6 211.261C172.675 211.301 172.779 211.321 172.911 211.321C172.993 211.321 173.089 211.301 173.199 211.261C173.312 211.221 173.415 211.167 173.51 211.099V208.464H174.669V212.181Z" fill="white"/>
<path d="M179.203 210.271C179.203 210.865 179.052 211.344 178.75 211.708C178.45 212.072 178.079 212.254 177.638 212.254C177.452 212.254 177.291 212.233 177.154 212.191C177.018 212.149 176.872 212.084 176.718 211.996V213.545H175.559V208.464H176.718V208.852C176.887 208.706 177.061 208.588 177.237 208.497C177.414 208.407 177.618 208.362 177.849 208.362C178.28 208.362 178.613 208.533 178.849 208.875C179.085 209.217 179.203 209.682 179.203 210.271ZM178.018 210.295C178.018 209.933 177.962 209.67 177.849 209.507C177.739 209.344 177.566 209.262 177.33 209.262C177.226 209.262 177.122 209.278 177.019 209.312C176.917 209.345 176.817 209.394 176.718 209.461V211.331C176.779 211.357 176.847 211.376 176.919 211.387C176.994 211.398 177.083 211.403 177.184 211.403C177.467 211.403 177.676 211.312 177.813 211.129C177.95 210.943 178.018 210.665 178.018 210.295Z" fill="white"/>
<circle cx="140.277" cy="193.201" r="2.71138" fill="#FD6E35"/>
<circle cx="147.055" cy="193.201" r="2.71138" fill="#FD6E35"/>
<circle cx="153.833" cy="193.201" r="2.71138" fill="#FD6E35"/>
<circle cx="160.612" cy="193.201" r="2.71138" fill="#FD6E35"/>
<circle cx="167.391" cy="193.201" r="2.71138" fill="#FD6E35"/>
</svg>
