<svg width="139" height="53" viewBox="0 0 139 53" fill="none" xmlns="http://www.w3.org/2000/svg">
<path d="M0 34.3624H4.61691V22.3191C4.61691 19.8821 6.22389 18.2316 8.21347 18.2316C10.1649 18.2316 11.504 19.5597 11.504 21.597V34.3624H16.0316V22.0097C16.0316 19.779 17.3453 18.2316 19.5772 18.2316C21.4393 18.2316 22.9187 19.3406 22.9187 21.7905V34.3624H27.5484V21.0684C27.5484 16.6456 25.0231 14.2989 21.4265 14.2989C18.5824 14.2989 16.4142 15.7172 15.547 17.9222H15.3429C14.5905 15.6786 12.6901 14.2989 10.05 14.2989C7.42276 14.2989 5.45866 15.6657 4.64241 17.9222H4.41284V14.5568H0V34.3624Z" fill="black"/>
<path d="M40.9049 34.7492C45.4708 34.7492 48.6082 32.4927 49.4244 29.0499L45.1137 28.5599C44.4887 30.2362 42.9582 31.113 40.9686 31.113C37.9843 31.113 36.0074 29.1273 35.9692 25.7361H49.6158V24.3048C49.6158 17.3549 45.4835 14.2989 40.6626 14.2989C35.0509 14.2989 31.3905 18.4638 31.3905 24.5756C31.3905 30.7907 34.9998 34.7492 40.9049 34.7492ZM35.9819 22.5899C36.1221 20.0626 37.9715 17.935 40.7263 17.935C43.3791 17.935 45.1647 19.895 45.1902 22.5899H35.9819Z" fill="black"/>
<path d="M58.1386 22.7576C58.1386 19.895 59.8477 18.2445 62.2837 18.2445C64.6686 18.2445 66.097 19.8305 66.097 22.4738V34.3624H70.7139V21.7518C70.7267 17.0067 68.0483 14.2989 64.0054 14.2989C61.072 14.2989 59.0569 15.7172 58.1641 17.9222H57.9345V14.5568H53.5217V34.3624H58.1386V22.7576Z" fill="black"/>
<path d="M87.8932 26.0327C87.8932 29.0499 85.7638 30.5457 83.7224 30.5457C81.504 30.5457 80.0242 28.9597 80.0242 26.4453V14.5568H75.4072V27.1674C75.4072 31.9253 78.0856 34.6202 81.9369 34.6202C84.871 34.6202 86.9369 33.06 87.8297 30.8422H88.0338V34.3624H92.5104V14.5568H87.8932V26.0327Z" fill="black"/>
<path d="M94 5V0L0 1.7553e-06L5.5392e-08 4.95702L94 5Z" fill="black"/>
<path d="M94 8V2H36V8H94Z" fill="black"/>
<path d="M104.067 40.5818H101.766V38.5455H100.903V40.5818H99.2858V41.367H100.903V49.1901C100.903 50.8685 102.193 51.8266 103.561 51.8266C104.003 51.8266 104.302 51.7474 104.573 51.6466L104.359 50.8469C104.145 50.919 103.932 50.9766 103.618 50.9766C102.649 50.9766 101.766 50.3715 101.766 49.0316V41.367H104.067V40.5818Z" fill="black"/>
<path d="M111.441 51.877C113.6 51.877 114.925 50.602 115.424 49.4855L114.634 49.1613C114.227 49.9825 113.222 51.063 111.441 51.063C108.955 51.063 107.465 49.0316 107.43 46.3087H115.781V45.7612C115.781 42.4763 113.686 40.4161 111.235 40.4161C108.52 40.4161 106.568 42.8581 106.568 46.1646C106.568 49.4639 108.47 51.877 111.441 51.877ZM107.444 45.509C107.615 43.0958 109.161 41.2373 111.235 41.2373C113.315 41.2373 114.911 43.1102 114.911 45.509H107.444Z" fill="black"/>
<path d="M122.878 51.877C125.015 51.877 126.625 50.4651 126.939 48.4193H126.055C125.77 50.0257 124.48 51.063 122.878 51.063C120.59 51.063 119.029 48.9524 119.029 46.1358C119.029 43.2831 120.654 41.2373 122.878 41.2373C124.523 41.2373 125.756 42.3467 126.033 43.8378H126.917C126.596 41.7992 124.944 40.4161 122.87 40.4161C120.098 40.4161 118.167 42.8653 118.167 46.1501C118.167 49.435 120.084 51.877 122.878 51.877Z" fill="black"/>
<path d="M130.772 45.8688C130.772 43.9383 132.104 42.6489 133.95 42.6489C135.774 42.6489 136.985 43.8878 136.985 45.7824V51.6466H137.848V45.7464C137.848 43.3187 136.322 41.8348 134.114 41.8348C132.532 41.8348 131.37 42.5768 130.858 43.7294H130.772V38.5477H129.903V51.6466H130.772V45.8688Z" fill="black"/>
<path d="M0 42H52V49H0V42Z" fill="black"/>
<path d="M52 39H58V52H52V39Z" fill="black"/>
<path d="M57 50H94V52H57V50Z" fill="black"/>
<path d="M57 44H94V47H57V44Z" fill="black"/>
<path d="M57 39.0001L94 39V41H57V39.0001Z" fill="black"/>
<path d="M97.8951 49.7318H95.385V52.2654H97.8951V49.7318Z" fill="#0000E5"/>
<path d="M95.385 26.5968H109.392V34.6589H110.346V26.5968H114.161V25.5219H110.346V0.260742H109.392L95.385 25.7906V26.5968ZM109.392 25.5219H96.756V25.3875L109.273 2.47781H109.392V25.5219Z" fill="black"/>
<path d="M137.327 0.260742V23.036C137.327 29.4017 133.065 34.1214 127.313 34.1214C121.562 34.1214 117.299 29.4017 117.299 23.036V0.260742H116.345V23.036C116.316 29.9896 121.069 35.1963 127.313 35.1963C133.587 35.1963 138.28 30.0064 138.28 23.036V0.260742H137.327Z" fill="black"/>
</svg>
