<svg width="45" height="29" viewBox="0 0 45 29" fill="none" xmlns="http://www.w3.org/2000/svg">
<g clip-path="url(#clip0_8786_11712)">
<rect y="0.5" width="22" height="13.6552" rx="4" fill="#26337A"/>
<path fill-rule="evenodd" clip-rule="evenodd" d="M9.12695 9.50018L9.80339 5.15918H10.8847L10.2083 9.50018H9.12695Z" fill="#FFFFFE"/>
<path fill-rule="evenodd" clip-rule="evenodd" d="M14.1312 5.26563C13.9174 5.17851 13.5812 5.0835 13.1623 5.0835C12.0933 5.0835 11.3408 5.67259 11.3345 6.51614C11.3277 7.14011 11.8715 7.48809 12.2815 7.69548C12.7028 7.90807 12.8444 8.0441 12.8427 8.23419C12.8398 8.52492 12.5064 8.65814 12.1955 8.65814C11.7626 8.65814 11.5326 8.59255 11.177 8.43049L11.0379 8.36138L10.8867 9.33308C11.1389 9.45398 11.6063 9.55893 12.0914 9.56444C13.2275 9.56444 13.9657 8.98246 13.9744 8.08167C13.9783 7.58688 13.6901 7.21184 13.0661 6.9022C12.6883 6.7009 12.4564 6.56755 12.459 6.36381C12.4593 6.18341 12.6549 5.99025 13.0784 5.99025C13.4321 5.98435 13.6882 6.06885 13.8877 6.15706L13.9848 6.20668L14.1312 5.26563Z" fill="#FFFFFE"/>
<path fill-rule="evenodd" clip-rule="evenodd" d="M15.5706 7.96109C15.6602 7.71158 16.0014 6.7477 16.0014 6.7477C15.9951 6.75918 16.0905 6.49627 16.1451 6.33356L16.2181 6.70796C16.2181 6.70796 16.4256 7.74408 16.4683 7.96109C16.2999 7.96109 15.7818 7.96109 15.5706 7.96109ZM16.9046 5.16357H16.069C15.8098 5.16357 15.6158 5.24038 15.5022 5.52342L13.8965 9.50169H15.0322C15.0322 9.50169 15.2175 8.96651 15.2595 8.84906C15.3834 8.84906 16.4869 8.8513 16.6444 8.8513C16.6768 9.00279 16.7761 9.50169 16.7761 9.50169H17.7797L16.9046 5.16357Z" fill="#FFFFFE"/>
<path fill-rule="evenodd" clip-rule="evenodd" d="M8.22031 5.16309L7.16198 8.1226L7.04863 7.52101C6.85141 6.82786 6.23749 6.07657 5.55078 5.70013L6.519 9.49665L7.66335 9.49594L9.36614 5.16309H8.22031Z" fill="#FFFFFE"/>
<path fill-rule="evenodd" clip-rule="evenodd" d="M6.1799 5.16016H4.43622L4.42188 5.2501C5.77866 5.60969 6.67637 6.47766 7.04898 7.52103L6.67007 5.52641C6.6047 5.25132 6.41471 5.16977 6.1799 5.16016Z" fill="#EC982D"/>
</g>
<g clip-path="url(#clip1_8786_11712)">
<rect x="23" y="0.5" width="22" height="13.2" rx="4" fill="#000066"/>
<path fill-rule="evenodd" clip-rule="evenodd" d="M35.3483 7.20692C35.3483 9.57814 33.4263 11.5001 31.0551 11.5001C28.6839 11.5001 26.7617 9.57814 26.7617 7.20692C26.7617 4.83577 28.6839 2.91357 31.0551 2.91357C33.4263 2.91357 35.3483 4.83577 35.3483 7.20692Z" fill="#CC0000"/>
<path fill-rule="evenodd" clip-rule="evenodd" d="M36.82 2.91357C35.7104 2.91357 34.6997 3.33443 33.9377 4.02486C33.7826 4.16557 33.6379 4.31755 33.5043 4.47937H34.3718C34.4902 4.62361 34.5994 4.77525 34.6991 4.93408H33.177C33.0859 5.08003 33.0031 5.23167 32.9296 5.3888H34.9463C35.0152 5.53596 35.0759 5.68754 35.1281 5.84331H32.7478C32.6982 5.99136 32.6564 6.14307 32.623 6.29776H35.2527C35.3157 6.59086 35.3492 6.89496 35.3492 7.20692C35.3492 7.68355 35.2715 8.14234 35.1281 8.5708H32.7478C32.8 8.72644 32.8607 8.87822 32.9294 9.02558H34.9463C34.8726 9.18231 34.7902 9.33409 34.6987 9.48023H33.177C33.2762 9.63859 33.3856 9.79043 33.5043 9.93448H34.3715C34.2382 10.0964 34.0933 10.2484 33.9378 10.3891C34.6998 11.0795 35.7104 11.5001 36.82 11.5001C39.1911 11.5001 41.1132 9.57814 41.1132 7.20692C41.1132 4.83598 39.1911 2.91357 36.82 2.91357Z" fill="#FF9900"/>
<path fill-rule="evenodd" clip-rule="evenodd" d="M30.0522 7.67674C30.0033 7.67118 29.9817 7.66942 29.9481 7.66942C29.6839 7.66942 29.5504 7.76006 29.5504 7.93911C29.5504 8.04937 29.6156 8.11945 29.7173 8.11945C29.9072 8.11945 30.0441 7.93871 30.0522 7.67674ZM30.3913 8.46586C30.3292 8.46586 30.005 8.46586 30.005 8.46586L30.0139 8.28234C29.8961 8.42726 29.7389 8.49646 29.5254 8.49646C29.2728 8.49646 29.0996 8.2993 29.0996 8.01278C29.0996 7.58147 29.4008 7.32995 29.9179 7.32995C29.9708 7.32995 30.0386 7.33484 30.1079 7.34359C30.1223 7.28511 30.1261 7.26027 30.1261 7.22872C30.1261 7.11148 30.0449 7.06752 29.8272 7.06752C29.5992 7.06521 29.4111 7.122 29.3338 7.14737C29.3387 7.11793 29.3985 6.74904 29.3985 6.74904C29.6307 6.68078 29.7839 6.65527 29.9563 6.65527C30.3566 6.65527 30.5686 6.83493 30.5681 7.17458C30.5689 7.2657 30.5538 7.37772 30.5304 7.52549C30.4899 7.78196 30.4031 8.332 30.3913 8.46586Z" fill="#000066"/>
<path fill-rule="evenodd" clip-rule="evenodd" d="M28.9042 8.4658H28.438L28.7052 6.79186L28.1089 8.4658H27.7913L27.752 6.80122L27.4714 8.4658H27.0352L27.3996 6.28809H28.0698L28.1103 7.50704L28.5193 6.28809H29.2647L28.9042 8.4658Z" fill="#000066"/>
<path fill-rule="evenodd" clip-rule="evenodd" d="M37.3957 7.67674C37.3468 7.67118 37.3255 7.66942 37.292 7.66942C37.0276 7.66942 36.8941 7.76006 36.8941 7.93911C36.8941 8.04937 36.959 8.11945 37.0611 8.11945C37.2508 8.11945 37.3878 7.93871 37.3957 7.67674ZM37.735 8.46586C37.6727 8.46586 37.3488 8.46586 37.3488 8.46586L37.3575 8.28234C37.2398 8.42726 37.0826 8.49646 36.8692 8.49646C36.6164 8.49646 36.4434 8.2993 36.4434 8.01278C36.4434 7.58147 36.7447 7.32995 37.2616 7.32995C37.3145 7.32995 37.3821 7.33484 37.4515 7.34359C37.466 7.28511 37.4697 7.26027 37.4697 7.22872C37.4697 7.11148 37.3885 7.06752 37.1708 7.06752C36.9428 7.06521 36.7548 7.122 36.6772 7.14737C36.6824 7.11793 36.7423 6.74904 36.7423 6.74904C36.9743 6.68078 37.1277 6.65527 37.2998 6.65527C37.7004 6.65527 37.9121 6.83493 37.9117 7.17458C37.9125 7.2657 37.8975 7.37772 37.874 7.52549C37.8337 7.78196 37.7466 8.332 37.735 8.46586Z" fill="#000066"/>
<path fill-rule="evenodd" clip-rule="evenodd" d="M32.4631 8.43892C32.3355 8.47909 32.2361 8.49646 32.1282 8.49646C31.89 8.49646 31.76 8.35954 31.76 8.10735C31.7566 8.02905 31.7942 7.82314 31.8238 7.63533C31.8508 7.46985 32.026 6.42676 32.026 6.42676H32.4892L32.4351 6.69482H32.715L32.6518 7.1205H32.371C32.3172 7.45723 32.2405 7.8768 32.2396 7.93244C32.2396 8.02376 32.2883 8.06366 32.3992 8.06366C32.4524 8.06366 32.4935 8.05823 32.5249 8.04697L32.4631 8.43892Z" fill="#000066"/>
<path fill-rule="evenodd" clip-rule="evenodd" d="M33.8836 8.42461C33.7244 8.47326 33.571 8.497 33.4082 8.49646C32.8895 8.49578 32.6191 8.22507 32.6191 7.70637C32.6191 7.10103 32.9631 6.65527 33.4301 6.65527C33.812 6.65527 34.056 6.90482 34.056 7.29603C34.056 7.42609 34.0393 7.55283 33.9988 7.73168H33.0762C33.0451 7.98862 33.2094 8.09562 33.4791 8.09562C33.6447 8.09562 33.7944 8.06142 33.9607 7.98428L33.8836 8.42461ZM33.6232 7.37473C33.6258 7.33776 33.6722 7.05856 33.4074 7.05856C33.2601 7.05856 33.1544 7.17106 33.1116 7.37473H33.6232Z" fill="#000066"/>
<path fill-rule="evenodd" clip-rule="evenodd" d="M30.6706 7.25478C30.6706 7.47861 30.7792 7.6331 31.0255 7.74919C31.2141 7.838 31.2435 7.86426 31.2435 7.94466C31.2435 8.05491 31.1602 8.10498 30.9759 8.10498C30.8367 8.10498 30.7074 8.08313 30.5582 8.03489C30.5582 8.03489 30.4971 8.42543 30.4941 8.44408C30.6001 8.46702 30.6945 8.48839 30.9792 8.49646C31.4709 8.49646 31.6981 8.3092 31.6981 7.90449C31.6981 7.66119 31.6031 7.51837 31.3696 7.4109C31.1742 7.32127 31.1517 7.30119 31.1517 7.21855C31.1517 7.12281 31.2292 7.0739 31.3798 7.0739C31.4713 7.0739 31.5962 7.08367 31.7147 7.10042L31.781 6.68967C31.6604 6.67047 31.4773 6.65527 31.3708 6.65527C30.8495 6.65527 30.6689 6.92755 30.6706 7.25478Z" fill="#000066"/>
<path fill-rule="evenodd" clip-rule="evenodd" d="M36.1502 6.70199C36.2796 6.70199 36.4005 6.73564 36.5667 6.81957L36.643 6.34694C36.5745 6.32007 36.3343 6.1626 36.1307 6.1626C35.8189 6.1626 35.555 6.31756 35.3697 6.57274C35.0991 6.48318 34.9877 6.6642 34.8515 6.84467L34.7304 6.8729C34.7396 6.81353 34.7479 6.75457 34.7453 6.6948H34.317C34.2587 7.24308 34.155 7.79821 34.074 8.34669L34.0527 8.46583H34.5191C34.5969 7.96009 34.6394 7.63639 34.6653 7.41711L34.8409 7.31981C34.8673 7.22204 34.9492 7.1892 35.1139 7.19321C35.0924 7.30868 35.0808 7.43034 35.0808 7.55619C35.0808 8.13568 35.3938 8.49643 35.8953 8.49643C36.0246 8.49643 36.1356 8.47947 36.3075 8.43265L36.3891 7.93641C36.2346 8.01234 36.108 8.04809 35.9933 8.04809C35.7223 8.04809 35.5583 7.84801 35.5583 7.51752C35.5583 7.0379 35.8021 6.70199 36.1502 6.70199Z" fill="#000066"/>
<path fill-rule="evenodd" clip-rule="evenodd" d="M40.0956 6.28809L39.992 6.91724C39.8647 6.74959 39.7278 6.62814 39.5471 6.62814C39.3119 6.62814 39.0979 6.80644 38.9577 7.06902C38.7625 7.02851 38.5608 6.95964 38.5608 6.95964L38.5606 6.96134C38.5762 6.81459 38.5828 6.7253 38.5812 6.69477H38.153C38.0949 7.24305 37.9911 7.79818 37.9101 8.34666L37.8887 8.4658H38.3551C38.4181 8.05708 38.4662 7.7173 38.5017 7.44822C38.6611 7.30411 38.7409 7.17879 38.9016 7.18693C38.8303 7.3594 38.7887 7.55793 38.7887 7.76161C38.7887 8.20418 39.0125 8.4964 39.3515 8.4964C39.5223 8.4964 39.6534 8.43744 39.7812 8.30093L39.7592 8.46566H40.2003L40.5553 6.28809H40.0956ZM39.5127 8.05669C39.3541 8.05669 39.2737 7.93904 39.2737 7.70754C39.2737 7.35941 39.4239 7.11265 39.6352 7.11265C39.7954 7.11265 39.8823 7.2345 39.8823 7.45949C39.8823 7.8106 39.7296 8.05669 39.5127 8.05669Z" fill="#000066"/>
<path fill-rule="evenodd" clip-rule="evenodd" d="M29.0389 8.33669H28.5729L28.84 6.66275L28.2438 8.33669H27.9261L27.8869 6.67245L27.6062 8.33669H27.1699L27.5343 6.15918H28.2046L28.2233 7.50718L28.6756 6.15918H29.3995L29.0389 8.33669Z" fill="white"/>
<path fill-rule="evenodd" clip-rule="evenodd" d="M30.187 7.54808C30.1381 7.54238 30.1166 7.54082 30.083 7.54082C29.8188 7.54082 29.6851 7.63133 29.6851 7.81025C29.6851 7.92036 29.7504 7.99086 29.8522 7.99086C30.0421 7.99086 30.1789 7.81011 30.187 7.54808ZM30.5259 8.33696C30.4638 8.33696 30.1398 8.33696 30.1398 8.33696L30.1486 8.15356C30.0308 8.29842 29.8736 8.36769 29.6601 8.36769C29.4075 8.36769 29.2344 8.17025 29.2344 7.8838C29.2344 7.45242 29.5356 7.20125 30.0527 7.20125C30.1055 7.20125 30.1733 7.20607 30.2427 7.21502C30.257 7.1564 30.2608 7.1315 30.2608 7.09982C30.2608 6.98264 30.1797 6.93902 29.962 6.93902C29.7339 6.9363 29.5459 6.99309 29.4685 7.0184C29.4735 6.98909 29.5332 6.6202 29.5332 6.6202C29.7654 6.55208 29.9186 6.52637 30.091 6.52637C30.4913 6.52637 30.7032 6.70623 30.7029 7.04574C30.7036 7.13673 30.6886 7.24929 30.6652 7.39665C30.6246 7.65291 30.5378 8.2033 30.5259 8.33696Z" fill="white"/>
<path fill-rule="evenodd" clip-rule="evenodd" d="M36.7769 6.21759L36.7006 6.69016C36.5341 6.6065 36.4136 6.57264 36.2843 6.57264C35.9363 6.57264 35.6922 6.90896 35.6922 7.38865C35.6922 7.71914 35.8562 7.91881 36.1272 7.91881C36.242 7.91881 36.3688 7.88333 36.523 7.80713L36.4411 8.30337C36.2695 8.35012 36.1585 8.36722 36.0293 8.36722C35.5274 8.36722 35.2148 8.0064 35.2148 7.42705C35.2148 6.64856 35.647 6.10449 36.2647 6.10449C36.4682 6.10449 36.7086 6.19073 36.7769 6.21759Z" fill="white"/>
<path fill-rule="evenodd" clip-rule="evenodd" d="M37.5284 7.54808C37.4799 7.54238 37.4582 7.54082 37.4247 7.54082C37.1606 7.54082 37.0269 7.63133 37.0269 7.81025C37.0269 7.92036 37.0921 7.99086 37.1939 7.99086C37.3836 7.99086 37.5206 7.81011 37.5284 7.54808ZM37.8677 8.33696C37.8056 8.33696 37.4815 8.33696 37.4815 8.33696L37.4903 8.15356C37.3725 8.29842 37.2153 8.36769 37.002 8.36769C36.7491 8.36769 36.5762 8.17025 36.5762 7.8838C36.5762 7.45242 36.8771 7.20125 37.3944 7.20125C37.4472 7.20125 37.5148 7.20607 37.5841 7.21502C37.5986 7.1564 37.6024 7.1315 37.6024 7.09982C37.6024 6.98264 37.5214 6.93902 37.3036 6.93902C37.0757 6.9363 36.8877 6.99309 36.8102 7.0184C36.8151 6.98909 36.8749 6.6202 36.8749 6.6202C37.1072 6.55208 37.2602 6.52637 37.4326 6.52637C37.8329 6.52637 38.045 6.70623 38.0445 7.04574C38.0454 7.13673 38.0303 7.24929 38.0068 7.39665C37.9664 7.65291 37.8796 8.2033 37.8677 8.33696Z" fill="white"/>
<path fill-rule="evenodd" clip-rule="evenodd" d="M32.5979 8.30988C32.4704 8.35005 32.3709 8.36748 32.2631 8.36748C32.0249 8.36748 31.8947 8.2305 31.8947 7.97858C31.8915 7.90001 31.9291 7.69443 31.9588 7.50643C31.9856 7.34081 32.1608 6.29785 32.1608 6.29785H32.6242L32.57 6.56585H32.8078L32.7445 6.99139H32.5058C32.452 7.32846 32.3753 7.74776 32.3743 7.8034C32.3743 7.89499 32.4233 7.93461 32.5341 7.93461C32.5872 7.93461 32.6282 7.92939 32.6598 7.91786L32.5979 8.30988Z" fill="white"/>
<path fill-rule="evenodd" clip-rule="evenodd" d="M34.0184 8.29604C33.8591 8.34483 33.7054 8.36783 33.5428 8.36769C33.0241 8.36735 32.7539 8.0963 32.7539 7.57767C32.7539 6.97213 33.0978 6.52637 33.5644 6.52637C33.9467 6.52637 34.1907 6.77591 34.1907 7.1676C34.1907 7.29739 34.1737 7.42406 34.1337 7.60298H33.2109C33.1797 7.85992 33.3442 7.96712 33.6136 7.96712C33.7794 7.96712 33.929 7.93279 34.0955 7.85544L34.0184 8.29604ZM33.7579 7.24583C33.7605 7.20879 33.8071 6.92973 33.5423 6.92973C33.3948 6.92973 33.2892 7.04242 33.2462 7.24583H33.7579Z" fill="white"/>
<path fill-rule="evenodd" clip-rule="evenodd" d="M30.8052 7.12587C30.8052 7.35011 30.9139 7.50426 31.1603 7.62048C31.349 7.70923 31.3782 7.73548 31.3782 7.81595C31.3782 7.92634 31.295 7.97614 31.1105 7.97614C30.9715 7.97614 30.8421 7.95457 30.6928 7.90646C30.6928 7.90646 30.6318 8.29672 30.6289 8.31511C30.7347 8.33831 30.8293 8.35948 31.1138 8.36769C31.6057 8.36769 31.8329 8.1805 31.8329 7.77579C31.8329 7.53235 31.7377 7.3896 31.5043 7.2824C31.3089 7.1925 31.2864 7.17262 31.2864 7.08984C31.2864 6.99411 31.3639 6.94485 31.5146 6.94485C31.6059 6.94485 31.731 6.95503 31.8494 6.97172L31.9158 6.56104C31.7951 6.54197 31.6122 6.52637 31.5056 6.52637C30.9841 6.52637 30.8037 6.79871 30.8052 7.12587Z" fill="white"/>
<path fill-rule="evenodd" clip-rule="evenodd" d="M40.3354 8.33669H39.8945L39.9164 8.17189C39.7885 8.30847 39.6575 8.36742 39.4866 8.36742C39.1479 8.36742 38.9238 8.07554 38.9238 7.6325C38.9238 7.04344 39.2713 6.54693 39.6822 6.54693C39.863 6.54693 39.9998 6.62075 40.1273 6.78847L40.2307 6.15918H40.6904L40.3354 8.33669ZM39.6478 7.92751C39.865 7.92751 40.0173 7.68156 40.0173 7.33079C40.0173 7.10574 39.9306 6.98348 39.7704 6.98348C39.559 6.98348 39.4089 7.23031 39.4089 7.57857C39.4089 7.81034 39.4893 7.92751 39.6478 7.92751Z" fill="white"/>
<path fill-rule="evenodd" clip-rule="evenodd" d="M38.2877 6.56589C38.2294 7.11403 38.1258 7.66916 38.0447 8.21771L38.0234 8.33679H38.4896C38.6564 7.2538 38.6965 7.04245 38.9581 7.06884C38.9997 6.84719 39.0773 6.65307 39.135 6.55524C38.9398 6.51453 38.8308 6.62485 38.6879 6.8345C38.6993 6.74379 38.7198 6.65579 38.716 6.56589H38.2877Z" fill="white"/>
<path fill-rule="evenodd" clip-rule="evenodd" d="M34.452 6.56589C34.3934 7.11403 34.2896 7.66916 34.2087 8.21771L34.1875 8.33679H34.6538C34.8207 7.2538 34.8606 7.04245 35.1218 7.06884C35.1637 6.84719 35.2414 6.65307 35.299 6.55524C35.104 6.51453 34.9948 6.62485 34.8521 6.8345C34.8634 6.74379 34.8841 6.65579 34.88 6.56589H34.452Z" fill="white"/>
</g>
<g clip-path="url(#clip2_8786_11712)">
<rect y="15.1553" width="22" height="13.2" rx="4" fill="#000066"/>
<path fill-rule="evenodd" clip-rule="evenodd" d="M18.4039 21.7519C18.4039 24.184 16.4402 26.1554 14.0173 26.1554C11.5948 26.1554 9.63086 24.184 9.63086 21.7519C9.63086 19.3196 11.5948 17.3481 14.0173 17.3481C16.4402 17.3481 18.4039 19.3196 18.4039 21.7519Z" fill="#CC0000"/>
<path fill-rule="evenodd" clip-rule="evenodd" d="M10.6291 24.5484C10.508 24.4009 10.3964 24.2451 10.295 24.0819H11.8496C11.943 23.9325 12.0272 23.7767 12.1024 23.6156H10.0424C9.97212 23.4647 9.90973 23.3091 9.85662 23.1494H12.2878C12.4342 22.7103 12.5133 22.2405 12.5133 21.7519C12.5133 21.4319 12.4794 21.1198 12.4149 20.8193H9.72989C9.76386 20.6604 9.8067 20.505 9.85717 20.353H12.2875C12.2342 20.1933 12.1722 20.0377 12.102 19.8869H10.0428C10.118 19.7258 10.2024 19.5703 10.2955 19.4205H11.8491C11.7478 19.2578 11.636 19.1022 11.5151 18.9545H10.6296C10.7659 18.7886 10.9139 18.6327 11.0724 18.4885C10.2938 17.7798 9.26046 17.3481 8.12699 17.3481C5.7042 17.3481 3.74023 19.3196 3.74023 21.7519C3.74023 24.184 5.7042 26.1554 8.12699 26.1554C9.26053 26.1554 10.294 25.7238 11.0724 25.0154C11.2311 24.8708 11.3793 24.7147 11.5155 24.5484H10.6291Z" fill="#0066CC"/>
<path fill-rule="evenodd" clip-rule="evenodd" d="M11.0098 22.9416C10.8223 22.9914 10.641 23.0158 10.4494 23.0154C9.83796 23.0148 9.51953 22.7353 9.51953 22.2007C9.51953 21.5761 9.9249 21.1167 10.4752 21.1167C10.9253 21.1167 11.2126 21.3743 11.2126 21.7778C11.2126 21.9117 11.1931 22.0422 11.1455 22.2266H10.0582C10.0195 22.4877 10.2094 22.6024 10.5327 22.6024C10.7263 22.6024 10.9014 22.5674 11.0954 22.4891L11.0098 22.9416ZM10.7174 21.8583C10.7174 21.8189 10.7778 21.5386 10.4632 21.5325C10.2894 21.5325 10.1648 21.6485 10.1144 21.8583H10.7174Z" fill="#000066"/>
<path fill-rule="evenodd" clip-rule="evenodd" d="M11.3783 21.736C11.3783 21.9667 11.5077 22.1261 11.8018 22.2448C12.0267 22.3372 12.062 22.364 12.062 22.4466C12.062 22.5611 11.9628 22.6136 11.7422 22.6122C11.5765 22.611 11.4253 22.5907 11.2469 22.5411L11.168 22.9619C11.3266 22.9989 11.5489 23.011 11.746 23.0156C12.3332 23.0156 12.6043 22.8226 12.6043 22.4055C12.6043 22.1547 12.4912 22.0072 12.2123 21.8972C11.9793 21.8037 11.9519 21.7836 11.9519 21.6989C11.9519 21.5995 12.0443 21.5493 12.2243 21.5493C12.3335 21.5493 12.4829 21.5593 12.6248 21.5766L12.7043 21.1534C12.5598 21.1333 12.3407 21.1172 12.2137 21.1172C11.5917 21.1172 11.3764 21.3983 11.3783 21.736Z" fill="#000066"/>
<path fill-rule="evenodd" clip-rule="evenodd" d="M9.22163 22.9852H8.76551L8.77639 22.7935C8.63732 22.9447 8.452 23.0152 8.20061 23.0152C7.90305 23.0152 7.69922 22.811 7.69922 22.5172C7.69922 22.0707 8.05356 21.8132 8.66283 21.8132C8.72543 21.8132 8.80509 21.8179 8.8869 21.8272C8.90382 21.7674 8.90839 21.7416 8.90839 21.7092C8.90839 21.587 8.81251 21.542 8.55613 21.542C8.30336 21.543 8.13281 21.5806 7.97453 21.6233L8.05245 21.2136C8.32617 21.1438 8.50531 21.1167 8.7081 21.1167C9.17989 21.1167 9.42906 21.3025 9.42906 21.6514C9.43301 21.7446 9.40077 21.9316 9.38448 22.0134C9.36604 22.1323 9.23528 22.8224 9.22163 22.9852ZM8.82122 22.1706C8.76347 22.1649 8.7383 22.1632 8.69872 22.1632C8.38764 22.1632 8.22991 22.2561 8.22991 22.4396C8.22991 22.5549 8.30687 22.6269 8.42688 22.6269C8.6504 22.6269 8.81179 22.4392 8.82122 22.1706Z" fill="#000066"/>
<path fill-rule="evenodd" clip-rule="evenodd" d="M13.5654 22.9566C13.4158 22.9977 13.2991 23.0156 13.173 23.0156C12.8936 23.0156 12.741 22.8723 12.741 22.617C12.7322 22.5469 12.8005 22.2229 12.816 22.1326C12.8314 22.0421 13.0734 20.7222 13.0734 20.7222H13.6163L13.5342 21.1589H13.8126L13.737 21.6045H13.4573C13.4573 21.6045 13.3039 22.3782 13.3039 22.4373C13.3039 22.5311 13.3605 22.5719 13.4905 22.5719C13.5526 22.5719 13.6006 22.566 13.6377 22.5549L13.5654 22.9566Z" fill="#000066"/>
<path fill-rule="evenodd" clip-rule="evenodd" d="M15.9919 21.1168C15.594 21.1168 15.2832 21.2814 15.1026 21.5558L15.2593 21.1486C14.9705 21.0422 14.7843 21.1941 14.616 21.41C14.616 21.41 14.5878 21.4458 14.5596 21.4786V21.1585H14.0499C13.9809 21.7234 13.8588 22.2963 13.7633 22.8624L13.7402 22.9855H14.2886C14.3406 22.6983 14.3833 22.4651 14.4259 22.2792C14.5424 21.7691 14.7384 21.6132 15.0327 21.6822C14.9648 21.8287 14.9276 21.9985 14.9276 22.1863C14.9276 22.6424 15.1741 23.0155 15.7866 23.0155C16.4046 23.0155 16.8522 22.6841 16.8522 21.9284C16.8522 21.4726 16.5539 21.1168 15.9919 21.1168ZM15.8323 22.5722C15.6387 22.5752 15.5213 22.4121 15.5213 22.168C15.5213 21.8787 15.6926 21.5519 15.9679 21.5519C16.19 21.5519 16.2661 21.7287 16.2661 21.9171C16.2661 22.3285 16.0981 22.5722 15.8323 22.5722Z" fill="#000066"/>
<path fill-rule="evenodd" clip-rule="evenodd" d="M7.44294 22.9856H6.89683L7.22136 21.2692L6.4742 22.9856H5.97641L5.88545 21.2793L5.55988 22.9856H5.06445L5.48639 20.7529H6.33977L6.41083 21.9976L6.95146 20.7529H7.87334L7.44294 22.9856Z" fill="#000066"/>
<path fill-rule="evenodd" clip-rule="evenodd" d="M11.1463 22.8043C10.959 22.8542 10.7777 22.8786 10.5861 22.8782C9.97468 22.8776 9.65625 22.598 9.65625 22.0635C9.65625 21.4389 10.0616 20.9795 10.6117 20.9795C11.0619 20.9795 11.3493 21.2371 11.3493 21.6405C11.3493 21.7744 11.3298 21.9046 11.2822 22.0894H10.195C10.1563 22.3502 10.346 22.4651 10.6693 22.4651C10.8629 22.4651 11.0381 22.4301 11.232 22.3517L11.1463 22.8043ZM10.854 21.7211C10.854 21.6816 10.9144 21.4014 10.5999 21.3952C10.4261 21.3952 10.3015 21.5112 10.251 21.7211H10.854Z" fill="white"/>
<path fill-rule="evenodd" clip-rule="evenodd" d="M11.5152 21.5982C11.5152 21.829 11.6445 21.9883 11.9386 22.1071C12.1635 22.1996 12.1988 22.2263 12.1988 22.3087C12.1988 22.4234 12.0995 22.4759 11.8791 22.4745C11.7132 22.4733 11.562 22.453 11.3838 22.4034L11.3047 22.8241C11.4634 22.8612 11.6859 22.8733 11.8828 22.878C12.4699 22.878 12.7411 22.6849 12.7411 22.2676C12.7411 22.017 12.628 21.8694 12.3491 21.7595C12.116 21.6661 12.0887 21.6457 12.0887 21.5613C12.0887 21.4619 12.1811 21.4115 12.3611 21.4115C12.4703 21.4115 12.6197 21.4217 12.7616 21.4389L12.8411 21.0158C12.6966 20.9954 12.4775 20.9795 12.3507 20.9795C11.7285 20.9795 11.5132 21.2604 11.5152 21.5982Z" fill="white"/>
<path fill-rule="evenodd" clip-rule="evenodd" d="M9.35848 22.848H8.90223L8.91325 22.6562C8.77411 22.8073 8.58893 22.8778 8.33747 22.8778C8.03997 22.8778 7.83594 22.6736 7.83594 22.3798C7.83594 21.9335 8.19035 21.6759 8.79962 21.6759C8.86222 21.6759 8.94181 21.6807 9.02376 21.6896C9.04068 21.63 9.04518 21.6044 9.04518 21.5719C9.04518 21.4494 8.94937 21.4046 8.69306 21.4046C8.44021 21.4057 8.26966 21.4433 8.11145 21.4861L8.18917 21.0764C8.46295 21.0065 8.64203 20.9795 8.84496 20.9795C9.31675 20.9795 9.56585 21.1651 9.56585 21.5142C9.56994 21.6074 9.53749 21.794 9.52141 21.8761C9.50276 21.995 9.37207 22.6851 9.35848 22.848ZM8.95808 22.0334C8.9004 22.0274 8.87516 22.0259 8.8355 22.0259C8.52456 22.0259 8.36677 22.1187 8.36677 22.3021C8.36677 22.4175 8.44386 22.4897 8.56366 22.4897C8.78732 22.4897 8.94872 22.3018 8.95808 22.0334Z" fill="white"/>
<path fill-rule="evenodd" clip-rule="evenodd" d="M13.7021 22.8189C13.5524 22.8601 13.4358 22.878 13.3096 22.878C13.0302 22.878 12.8777 22.7346 12.8777 22.4793C12.8689 22.4092 12.9372 22.0852 12.9526 21.9949C12.9682 21.9044 13.2102 20.5845 13.2102 20.5845H13.753L13.6709 21.0211H13.9494L13.8737 21.4668H13.5941C13.5941 21.4668 13.4405 22.2405 13.4405 22.2994C13.4405 22.3934 13.4971 22.434 13.6271 22.434C13.6892 22.434 13.7372 22.4284 13.7745 22.4171L13.7021 22.8189Z" fill="white"/>
<path fill-rule="evenodd" clip-rule="evenodd" d="M16.4031 21.7794C16.4031 22.1912 16.2349 22.4349 15.9691 22.4349C15.7755 22.4377 15.6581 22.2748 15.6581 22.0307C15.6581 21.7414 15.8294 21.4145 16.1047 21.4145C16.3269 21.4145 16.4031 21.5913 16.4031 21.7794ZM16.989 21.791C16.989 21.3353 16.6907 20.9795 16.1289 20.9795C15.4825 20.9795 15.0645 21.4119 15.0645 22.0491C15.0645 22.505 15.311 22.8782 15.9236 22.8782C16.5416 22.8782 16.989 22.5468 16.989 21.791Z" fill="white"/>
<path fill-rule="evenodd" clip-rule="evenodd" d="M14.1865 21.021C14.1175 21.586 13.9954 22.1588 13.9 22.7249L13.877 22.8482H14.4252C14.6228 21.7549 14.6891 21.4434 15.1033 21.553L15.3024 21.0358C15.0135 20.9294 14.8277 21.0814 14.6594 21.2974C14.6746 21.2001 14.7032 21.1063 14.6963 21.021H14.1865Z" fill="white"/>
<path fill-rule="evenodd" clip-rule="evenodd" d="M7.58161 22.848H7.03564L7.3601 21.1315L6.61287 22.848H6.11509L6.02406 21.1416L5.69848 22.848H5.20312L5.625 20.6152H6.47844L6.52351 21.9975L7.12425 20.6152H8.01201L7.58161 22.848Z" fill="white"/>
</g>
<g clip-path="url(#clip3_8786_11712)">
<rect x="23" y="15.1553" width="22" height="13.2" rx="4" fill="#0069AA"/>
<path fill-rule="evenodd" clip-rule="evenodd" d="M27.3007 23.0717C27.3007 22.8062 27.162 22.8237 27.0293 22.8209V22.7441C27.1443 22.7497 27.2623 22.7497 27.3777 22.7497C27.5016 22.7497 27.6699 22.7441 27.8885 22.7441C28.653 22.7441 29.0694 23.2546 29.0694 23.7774C29.0694 24.07 28.8982 24.8049 27.853 24.8049C27.7025 24.8049 27.5636 24.7991 27.4249 24.7991C27.2921 24.7991 27.162 24.8018 27.0293 24.8049V24.7281C27.2063 24.7103 27.2921 24.7045 27.3007 24.5037V23.0717ZM27.59 24.4564C27.59 24.6838 27.7525 24.7102 27.8972 24.7102C28.5351 24.7102 28.7444 24.2291 28.7444 23.7893C28.7444 23.2372 28.3901 22.8387 27.8204 22.8387C27.6991 22.8387 27.6433 22.8473 27.59 22.8505V24.4564Z" fill="white"/>
<path fill-rule="evenodd" clip-rule="evenodd" d="M29.1719 24.7281H29.2278C29.3105 24.7281 29.3696 24.7281 29.3696 24.6305V23.8304C29.3696 23.7007 29.3254 23.6828 29.216 23.6239V23.5768C29.3547 23.5351 29.5202 23.4794 29.5319 23.4705C29.5527 23.4586 29.5701 23.4555 29.5851 23.4555C29.5996 23.4555 29.6057 23.4732 29.6057 23.4971V24.6305C29.6057 24.7281 29.6708 24.7281 29.7535 24.7281H29.8035V24.8049C29.7031 24.8049 29.5996 24.7991 29.4937 24.7991C29.3874 24.7991 29.281 24.8018 29.1719 24.8049V24.7281ZM29.4877 23.001C29.4108 23.001 29.3431 22.9302 29.3431 22.8534C29.3431 22.7795 29.414 22.7114 29.4877 22.7114C29.5644 22.7114 29.6325 22.7736 29.6325 22.8534C29.6325 22.9333 29.5673 23.001 29.4877 23.001Z" fill="white"/>
<path fill-rule="evenodd" clip-rule="evenodd" d="M30.0855 23.8483C30.0855 23.7392 30.0529 23.7098 29.9143 23.6536V23.5975C30.0411 23.5562 30.162 23.5177 30.3039 23.4556C30.3128 23.4556 30.3214 23.4615 30.3214 23.4851V23.677C30.49 23.5562 30.6346 23.4556 30.8328 23.4556C31.0834 23.4556 31.1719 23.6387 31.1719 23.869V24.6305C31.1719 24.7282 31.237 24.7282 31.3196 24.7282H31.3729V24.805C31.2692 24.805 31.166 24.7992 31.0598 24.7992C30.9535 24.7992 30.8471 24.8019 30.7408 24.805V24.7282H30.7941C30.8768 24.7282 30.9356 24.7282 30.9356 24.6305V23.8662C30.9356 23.6977 30.8328 23.6151 30.6643 23.6151C30.5697 23.6151 30.4191 23.6918 30.3214 23.757V24.6305C30.3214 24.7282 30.3867 24.7282 30.4694 24.7282H30.5224V24.805C30.4191 24.805 30.3157 24.7992 30.2093 24.7992C30.1032 24.7992 29.9968 24.8019 29.8906 24.805V24.7282H29.9439C30.0265 24.7282 30.0855 24.7282 30.0855 24.6305V23.8483Z" fill="white"/>
<path fill-rule="evenodd" clip-rule="evenodd" d="M31.5976 23.9902C31.5916 24.0168 31.5916 24.061 31.5976 24.1615C31.615 24.4418 31.7955 24.672 32.0314 24.672C32.194 24.672 32.321 24.5834 32.4301 24.4744L32.4713 24.5157C32.3354 24.6958 32.1672 24.8494 31.9253 24.8494C31.4558 24.8494 31.3613 24.3945 31.3613 24.2057C31.3613 23.6269 31.7509 23.4556 31.9574 23.4556C32.1968 23.4556 32.4538 23.6061 32.4566 23.9192C32.4566 23.9371 32.4566 23.9546 32.4538 23.9724L32.4272 23.9902H31.5976ZM32.1204 23.8956C32.194 23.8956 32.2027 23.8572 32.2027 23.8216C32.2027 23.6713 32.1112 23.5502 31.9458 23.5502C31.7659 23.5502 31.6418 23.6829 31.6064 23.8956H32.1204Z" fill="white"/>
<path fill-rule="evenodd" clip-rule="evenodd" d="M32.5234 24.7282H32.6032C32.6856 24.7282 32.7447 24.7282 32.7447 24.6305V23.8011C32.7447 23.7098 32.6355 23.6918 32.5912 23.6682V23.624C32.8067 23.5324 32.9248 23.4556 32.9518 23.4556C32.9691 23.4556 32.978 23.4644 32.978 23.4941V23.7599H32.9842C33.0578 23.6447 33.182 23.4556 33.362 23.4556C33.4358 23.4556 33.5302 23.5057 33.5302 23.6121C33.5302 23.6918 33.4743 23.763 33.3917 23.763C33.2999 23.763 33.2999 23.6918 33.1964 23.6918C33.1463 23.6918 32.981 23.7599 32.981 23.9371V24.6305C32.981 24.7282 33.04 24.7282 33.1227 24.7282H33.2878V24.805C33.1255 24.8019 33.0019 24.7992 32.8748 24.7992C32.7537 24.7992 32.6297 24.8019 32.5234 24.805V24.7282Z" fill="white"/>
<path fill-rule="evenodd" clip-rule="evenodd" d="M33.6606 24.3944C33.6991 24.5893 33.8169 24.7548 34.0329 24.7548C34.2068 24.7548 34.2717 24.6484 34.2717 24.5452C34.2717 24.1966 33.6282 24.3089 33.6282 23.8336C33.6282 23.6681 33.7612 23.4556 34.0859 23.4556C34.1803 23.4556 34.3072 23.4823 34.4222 23.5414L34.443 23.8423H34.3751C34.3456 23.6564 34.2424 23.5502 34.0532 23.5502C33.9351 23.5502 33.8231 23.618 33.8231 23.745C33.8231 24.0906 34.5078 23.9841 34.5078 24.4477C34.5078 24.6424 34.3516 24.8493 34.0001 24.8493C33.8821 24.8493 33.7431 24.8079 33.6401 24.7489L33.6074 24.4093L33.6606 24.3944Z" fill="white"/>
<path fill-rule="evenodd" clip-rule="evenodd" d="M37.1731 23.278H37.0995C37.0433 22.9329 36.7982 22.7939 36.4678 22.7939C36.1278 22.7939 35.635 23.0211 35.635 23.7296C35.635 24.3263 36.0603 24.7544 36.5148 24.7544C36.8068 24.7544 37.0495 24.5536 37.1084 24.2434L37.1763 24.261L37.1084 24.6922C36.9844 24.7691 36.6507 24.8489 36.4556 24.8489C35.765 24.8489 35.3281 24.403 35.3281 23.7388C35.3281 23.1333 35.8684 22.6992 36.4471 22.6992C36.6861 22.6992 36.9164 22.7762 37.1437 22.856L37.1731 23.278Z" fill="white"/>
<path fill-rule="evenodd" clip-rule="evenodd" d="M37.2793 24.7279H37.3352C37.4181 24.7279 37.4771 24.7279 37.4771 24.6302V22.9862C37.4771 22.7941 37.4328 22.7882 37.3205 22.7557V22.7084C37.4386 22.6701 37.5627 22.6171 37.6248 22.5814C37.6569 22.5639 37.6807 22.5488 37.6894 22.5488C37.7075 22.5488 37.7133 22.5668 37.7133 22.5905V24.6302C37.7133 24.7279 37.7783 24.7279 37.8609 24.7279H37.9109V24.8047C37.8108 24.8047 37.7075 24.7989 37.6011 24.7989C37.4949 24.7989 37.3887 24.8016 37.2793 24.8047V24.7279Z" fill="white"/>
<path fill-rule="evenodd" clip-rule="evenodd" d="M39.1758 24.6424C39.1758 24.6957 39.2081 24.6985 39.2581 24.6985C39.2938 24.6985 39.3379 24.6957 39.3765 24.6957V24.7579C39.2495 24.7695 39.0073 24.8316 38.9511 24.8493L38.9364 24.8403V24.6012C38.7594 24.7458 38.6235 24.8493 38.4136 24.8493C38.2542 24.8493 38.0889 24.7458 38.0889 24.4981V23.742C38.0889 23.6652 38.0772 23.5913 37.9121 23.5768V23.5206C38.0185 23.5176 38.2542 23.5 38.2927 23.5C38.3254 23.5 38.3254 23.5206 38.3254 23.5856V24.3473C38.3254 24.4359 38.3254 24.6896 38.5822 24.6896C38.6825 24.6896 38.8153 24.613 38.9393 24.5098V23.7154C38.9393 23.6564 38.7976 23.6239 38.6915 23.5946V23.5415C38.957 23.5235 39.1225 23.5 39.152 23.5C39.1758 23.5 39.1758 23.5206 39.1758 23.5531V24.6424Z" fill="white"/>
<path fill-rule="evenodd" clip-rule="evenodd" d="M39.7638 23.6679C39.8818 23.5677 40.0413 23.4553 40.2037 23.4553C40.5463 23.4553 40.753 23.7538 40.753 24.0755C40.753 24.4622 40.4694 24.8491 40.047 24.8491C39.8288 24.8491 39.7136 24.778 39.6367 24.7455L39.5484 24.8135L39.4865 24.7811C39.5128 24.607 39.5277 24.4357 39.5277 24.2555V22.9862C39.5277 22.7941 39.4833 22.7882 39.3711 22.7557V22.7084C39.4893 22.6701 39.6132 22.6171 39.6751 22.5814C39.7077 22.5639 39.7313 22.5488 39.7403 22.5488C39.7578 22.5488 39.7638 22.5668 39.7638 22.5905V23.6679ZM39.7638 24.471C39.7638 24.5831 39.8701 24.7722 40.0679 24.7722C40.3837 24.7722 40.5166 24.4622 40.5166 24.1993C40.5166 23.8805 40.2747 23.6148 40.0445 23.6148C39.9348 23.6148 39.8434 23.6858 39.7638 23.7538V24.471Z" fill="white"/>
<path fill-rule="evenodd" clip-rule="evenodd" d="M27.0254 26.5214H27.048C27.1057 26.5214 27.1668 26.5135 27.1668 26.4298V25.5882C27.1668 25.5045 27.1057 25.4965 27.048 25.4965H27.0254V25.4482C27.088 25.4482 27.1844 25.4546 27.2633 25.4546C27.3436 25.4546 27.4399 25.4482 27.5154 25.4482V25.4965H27.4927C27.4352 25.4965 27.374 25.5045 27.374 25.5882V26.4298C27.374 26.5135 27.4352 26.5214 27.4927 26.5214H27.5154V26.5696C27.4384 26.5696 27.3417 26.5634 27.2617 26.5634C27.1828 26.5634 27.088 26.5696 27.0254 26.5696V26.5214Z" fill="white"/>
<path fill-rule="evenodd" clip-rule="evenodd" d="M27.5165 26.5767C27.4388 26.5767 27.3427 26.5702 27.2627 26.5702C27.1841 26.5702 27.0896 26.5767 27.0265 26.5767H27.0195V26.5146H27.049C27.1073 26.5132 27.1603 26.5085 27.1608 26.43V25.5884C27.1603 25.5098 27.1073 25.5046 27.049 25.5036H27.0195V25.4414H27.0265C27.0896 25.4414 27.1859 25.4477 27.2645 25.4477C27.3444 25.4477 27.4406 25.4414 27.5165 25.4414H27.5237V25.5036H27.4942C27.4358 25.5046 27.3824 25.5098 27.3821 25.5884V26.43C27.3824 26.5085 27.4358 26.5132 27.4942 26.5146H27.5237V26.5767H27.5165ZM27.5096 26.5629L27.5096 26.5288H27.4941C27.4367 26.5288 27.3684 26.5187 27.368 26.43V25.5884C27.3684 25.4995 27.4367 25.4896 27.4941 25.4896H27.5096V25.4553C27.4354 25.4554 27.3423 25.4618 27.2644 25.4618C27.1881 25.4618 27.0958 25.4558 27.0335 25.4553V25.4896H27.0489C27.1062 25.4896 27.1746 25.4995 27.1746 25.5884V26.43C27.1746 26.5187 27.1062 26.5288 27.0489 26.5288H27.0335V26.5629C27.0958 26.5624 27.1865 26.5565 27.2627 26.5565C27.3409 26.5565 27.4338 26.5625 27.5096 26.5629Z" fill="white"/>
<path fill-rule="evenodd" clip-rule="evenodd" d="M28.6189 26.253L28.6222 26.2498V25.6476C28.6222 25.5157 28.5305 25.4965 28.4823 25.4965H28.4469V25.4482C28.5226 25.4482 28.5964 25.4546 28.6719 25.4546C28.7377 25.4546 28.8039 25.4482 28.8695 25.4482V25.4965H28.8456C28.7779 25.4965 28.7024 25.5093 28.7024 25.7005V26.4314C28.7024 26.4877 28.704 26.5439 28.7119 26.5938H28.6508L27.8236 25.6715V26.3335C27.8236 26.4734 27.8508 26.5214 27.9745 26.5214H28.0018V26.5696C27.9328 26.5696 27.8637 26.5634 27.7947 26.5634C27.7225 26.5634 27.6485 26.5696 27.5762 26.5696V26.5214H27.5987C27.7095 26.5214 27.7433 26.4458 27.7433 26.3177V25.6408C27.7433 25.551 27.6692 25.4965 27.5972 25.4965H27.5762V25.4482C27.6371 25.4482 27.6999 25.4546 27.7608 25.4546C27.8091 25.4546 27.8557 25.4482 27.9039 25.4482L28.6189 26.253Z" fill="white"/>
<path fill-rule="evenodd" clip-rule="evenodd" d="M28.7131 26.6007L28.647 26.5984L27.8317 25.6898V26.3337C27.8336 26.4734 27.8548 26.5131 27.9758 26.5146H28.0102V26.5767H28.0031C27.9336 26.5767 27.8645 26.5702 27.7959 26.5702C27.724 26.5702 27.6502 26.5767 27.5774 26.5767H27.5703V26.5146H27.6C27.7062 26.514 27.7365 26.4457 27.7377 26.3178V25.6412C27.7374 25.5557 27.6672 25.5036 27.5985 25.5036H27.5703V25.4414H27.5774C27.6388 25.4414 27.7017 25.4477 27.7619 25.4477C27.8098 25.4477 27.8562 25.4414 27.9104 25.4439L28.6164 26.2386V25.6477C28.6156 25.5202 28.5304 25.5046 28.4836 25.5036H28.4411V25.4414H28.4482C28.5241 25.4414 28.5981 25.4477 28.6731 25.4477C28.7385 25.4477 28.8043 25.4414 28.8707 25.4414H28.8778V25.5036H28.8468C28.7805 25.5053 28.7125 25.5112 28.7105 25.7006V26.4316C28.7105 26.4878 28.7123 26.5439 28.72 26.5927L28.7215 26.6007H28.7131ZM28.6521 26.5867H28.7053C28.6981 26.5384 28.6968 26.485 28.6968 26.4316V25.7006C28.6968 25.5078 28.7776 25.4896 28.8468 25.4895H28.8638V25.4553C28.8004 25.4558 28.737 25.4617 28.6731 25.4617C28.5995 25.4617 28.528 25.4558 28.4554 25.4553L28.4552 25.4895H28.4836C28.533 25.4896 28.6304 25.5116 28.6304 25.6477L28.6282 26.255L28.6251 26.2581L28.6196 26.2633L27.9051 25.4553C27.8574 25.4553 27.8109 25.4617 27.7619 25.4617C27.7031 25.4617 27.6427 25.4558 27.5845 25.4553L27.5842 25.4895H27.5985C27.6738 25.4896 27.7513 25.5472 27.7513 25.6412V26.3178C27.7513 26.4464 27.7155 26.5284 27.6 26.5289L27.5845 26.5284V26.5629C27.6541 26.5624 27.7257 26.5565 27.7959 26.5565C27.8629 26.5565 27.9298 26.5624 27.9961 26.5629V26.5289H27.9758C27.8494 26.5284 27.8181 26.4734 27.8179 26.3337V25.6536L28.6521 26.5867ZM28.6203 26.2532L28.6253 26.2485L28.6203 26.2532ZM28.6164 26.25V26.2494L28.6151 26.2483L28.6164 26.25Z" fill="white"/>
<path fill-rule="evenodd" clip-rule="evenodd" d="M29.1117 25.5286C28.991 25.5286 28.9864 25.5576 28.9623 25.6748H28.9141C28.9204 25.6298 28.9284 25.5848 28.9333 25.5382C28.9398 25.4931 28.943 25.4482 28.943 25.4018H28.9815C28.9945 25.45 29.0346 25.4482 29.0782 25.4482H29.9068C29.9504 25.4482 29.9905 25.4467 29.9937 25.3984L30.0321 25.405C30.0259 25.4482 30.0194 25.4917 30.0147 25.5351C30.0115 25.5785 30.0115 25.6217 30.0115 25.6651L29.9632 25.683C29.9599 25.6236 29.952 25.5286 29.8443 25.5286H29.5808V26.3833C29.5808 26.5072 29.6372 26.5214 29.7141 26.5214H29.7448V26.5696C29.6821 26.5696 29.5696 26.5634 29.483 26.5634C29.3865 26.5634 29.2739 26.5696 29.2112 26.5696V26.5214H29.2419C29.3304 26.5214 29.3752 26.5135 29.3752 26.3866V25.5286H29.1117Z" fill="white"/>
<path fill-rule="evenodd" clip-rule="evenodd" d="M29.7432 26.5764C29.6799 26.5764 29.5675 26.57 29.4813 26.57C29.3849 26.57 29.2725 26.5764 29.2095 26.5764H29.2026V26.5143H29.2402C29.3287 26.5122 29.3643 26.5111 29.3663 26.3865V25.5353H29.11V25.5212H29.3802V26.3865C29.3802 26.5154 29.3282 26.5284 29.2402 26.5286H29.2164V26.5625C29.2797 26.5621 29.388 26.5562 29.4813 26.5562C29.5649 26.5562 29.6722 26.5621 29.7359 26.5625V26.5286H29.7124C29.6347 26.5284 29.5722 26.5094 29.5722 26.3831V25.5212H29.8426C29.9504 25.5217 29.9646 25.6132 29.968 25.673L30.0028 25.6602C30.0028 25.6182 30.003 25.5762 30.0058 25.534C30.0106 25.4925 30.0164 25.4517 30.0224 25.4105L29.998 25.4064C29.9906 25.4532 29.9452 25.4557 29.905 25.4551H29.0681C29.0302 25.4551 28.9891 25.4533 28.9746 25.4085H28.9481C28.9478 25.4529 28.9448 25.496 28.9387 25.5388C28.9339 25.583 28.9266 25.6254 28.9207 25.6679H28.955C28.9761 25.5558 28.9899 25.5197 29.11 25.5212V25.5353C28.991 25.5377 28.9936 25.5575 28.9674 25.6762L28.9662 25.6817H28.9043L28.9051 25.6734C28.9117 25.6286 28.9199 25.5835 28.9245 25.5368C28.9312 25.4922 28.9343 25.4477 28.9343 25.4016V25.3945H28.9853L28.9865 25.3996C28.9973 25.4401 29.0271 25.4404 29.0681 25.4411H29.905C29.9497 25.4404 29.9823 25.4398 29.9851 25.3977L29.9856 25.3901L29.9929 25.3916L30.0383 25.3988L30.0372 25.4059C30.0308 25.449 30.0245 25.4922 30.0197 25.5353C30.0167 25.5783 30.0167 25.6215 30.0167 25.6649V25.6698L30.012 25.6717L29.9552 25.6925L29.9548 25.6832C29.9504 25.6227 29.9442 25.5353 29.8426 25.5353H29.5862V26.3831C29.5877 26.5042 29.6358 26.5128 29.7124 26.5143H29.75V26.5764H29.7432Z" fill="white"/>
<path fill-rule="evenodd" clip-rule="evenodd" d="M30.082 26.5214H30.1047C30.1623 26.5214 30.2235 26.5135 30.2235 26.4298V25.5882C30.2235 25.5045 30.1623 25.4965 30.1047 25.4965H30.082V25.4482C30.1797 25.4482 30.3472 25.4546 30.4819 25.4546C30.617 25.4546 30.7839 25.4482 30.8931 25.4482C30.8903 25.5173 30.8918 25.6236 30.8966 25.6942L30.8482 25.7069C30.8405 25.6025 30.8212 25.5191 30.6524 25.5191H30.4294V25.9398H30.6202C30.7166 25.9398 30.7376 25.8853 30.7471 25.7985H30.7953C30.7921 25.8613 30.7904 25.9239 30.7904 25.9865C30.7904 26.0476 30.7921 26.1086 30.7953 26.1696L30.7471 26.1792C30.7376 26.0829 30.7328 26.0203 30.6218 26.0203H30.4294V26.3944C30.4294 26.499 30.5222 26.499 30.6251 26.499C30.8179 26.499 30.903 26.486 30.9512 26.3031L30.996 26.3142C30.9752 26.3995 30.956 26.4844 30.9416 26.5696C30.8386 26.5696 30.6539 26.5634 30.5096 26.5634C30.3647 26.5634 30.1737 26.5696 30.082 26.5696V26.5214Z" fill="white"/>
<path fill-rule="evenodd" clip-rule="evenodd" d="M30.9424 26.5767C30.8393 26.5767 30.6545 26.57 30.5104 26.57C30.3656 26.57 30.1747 26.5767 30.0829 26.5767H30.0762V26.5146H30.1055C30.1637 26.5136 30.2166 26.5085 30.2173 26.43V25.5884C30.2166 25.5099 30.1637 25.5046 30.1055 25.5036H30.0762V25.4414H30.0829C30.1811 25.4414 30.3482 25.4477 30.4828 25.4477C30.6179 25.4477 30.7847 25.4414 30.8941 25.4414H30.9012L30.9009 25.4488C30.8999 25.4728 30.8992 25.5014 30.8992 25.5316C30.8992 25.5872 30.9009 25.648 30.9041 25.6938L30.9044 25.6995L30.899 25.7011L30.8425 25.7159L30.8423 25.7076C30.8328 25.6034 30.8188 25.5276 30.6534 25.526H30.4368L30.4367 25.9329H30.6211C30.7137 25.9319 30.7302 25.8846 30.7412 25.7979L30.7416 25.7915H30.8033L30.8032 25.7988C30.8001 25.8616 30.7982 25.9241 30.7982 25.9866C30.7982 26.0474 30.8001 26.1084 30.8032 26.1694L30.8033 26.1753L30.7975 26.1766L30.7416 26.1877L30.7412 26.1802C30.7301 26.0821 30.7293 26.0283 30.6227 26.0272H30.4368V26.3945C30.4371 26.4922 30.5212 26.4917 30.626 26.4922C30.8194 26.4911 30.8969 26.4816 30.9453 26.3014L30.9469 26.2949L30.9537 26.296L31.0052 26.3094L31.0037 26.316C30.9829 26.401 30.9637 26.4859 30.9492 26.571L30.9479 26.5767H30.9424ZM30.9365 26.5628C30.9505 26.4816 30.9688 26.4004 30.9885 26.3196L30.9569 26.3116C30.9088 26.4913 30.8156 26.5073 30.626 26.5061C30.5247 26.5061 30.4235 26.5061 30.423 26.3945V26.0134H30.6228C30.735 26.0123 30.7463 26.0799 30.7543 26.1713L30.789 26.1642C30.7859 26.105 30.7843 26.0455 30.7843 25.9866C30.7843 25.9263 30.7859 25.8661 30.789 25.8055H30.7543C30.7452 25.8894 30.719 25.948 30.6211 25.9469H30.423V25.5121H30.6534C30.8205 25.5107 30.8481 25.5972 30.8554 25.6983L30.89 25.6888C30.8872 25.6435 30.8853 25.5853 30.8853 25.5316C30.8853 25.5042 30.8861 25.4781 30.887 25.4553C30.7778 25.4558 30.6149 25.4617 30.4828 25.4617C30.3508 25.4617 30.1883 25.4558 30.09 25.4553V25.4895H30.1056C30.1627 25.4896 30.2311 25.4995 30.2314 25.5884V26.43C30.2311 26.5187 30.1627 26.5284 30.1056 26.5289H30.09V26.5628C30.1835 26.5625 30.3692 26.5565 30.5104 26.5565C30.6522 26.5565 30.8329 26.5625 30.9365 26.5628Z" fill="white"/>
<path fill-rule="evenodd" clip-rule="evenodd" d="M31.2135 25.6184C31.2135 25.5013 31.1492 25.4965 31.0993 25.4965H31.0703V25.4482C31.1218 25.4482 31.2214 25.4546 31.3195 25.4546C31.4157 25.4546 31.4929 25.4482 31.578 25.4482C31.7802 25.4482 31.9605 25.5028 31.9605 25.7311C31.9605 25.8756 31.864 25.9638 31.7372 26.0139L32.0117 26.4249C32.0568 26.4929 32.0887 26.5119 32.1676 26.5214V26.5696C32.1145 26.5696 32.0631 26.5634 32.0103 26.5634C31.9605 26.5634 31.9088 26.5696 31.8593 26.5696C31.7355 26.4075 31.6293 26.234 31.525 26.049H31.4191V26.393C31.4191 26.5167 31.4768 26.5214 31.5505 26.5214H31.5796V26.5696C31.4878 26.5696 31.395 26.5634 31.3033 26.5634C31.2262 26.5634 31.1506 26.5696 31.0703 26.5696V26.5214H31.0993C31.159 26.5214 31.2135 26.4942 31.2135 26.4348V25.6184ZM31.4191 25.991H31.4976C31.6585 25.991 31.745 25.9302 31.745 25.7405C31.745 25.5977 31.6535 25.5061 31.5103 25.5061C31.4621 25.5061 31.4415 25.511 31.4191 25.5126V25.991Z" fill="white"/>
<path fill-rule="evenodd" clip-rule="evenodd" d="M32.1668 26.5767C32.1129 26.5767 32.0619 26.5702 32.009 26.5702C31.9601 26.5702 31.9087 26.5767 31.8527 26.574C31.7295 26.4122 31.6238 26.2398 31.5201 26.0564H31.4252V26.3928C31.4269 26.5138 31.4754 26.5129 31.5497 26.5146H31.5857V26.5767H31.5786C31.4868 26.5767 31.3934 26.5702 31.3024 26.5702C31.2257 26.5702 31.1502 26.5767 31.0695 26.5767H31.0625V26.5146H31.0985C31.1563 26.5142 31.2051 26.489 31.2053 26.435V25.6185C31.2041 25.5046 31.1484 25.5052 31.0985 25.5036H31.0625V25.4414H31.0695C31.1215 25.4414 31.2207 25.4477 31.3186 25.4477C31.4145 25.4477 31.4916 25.4414 31.5772 25.4414C31.7798 25.4418 31.9661 25.4976 31.9666 25.731C31.9666 25.876 31.8708 25.9666 31.7469 26.0171L32.0167 26.4212C32.0616 26.4879 32.0896 26.5046 32.1677 26.5146L32.1736 26.5155V26.5767H32.1668ZM31.4182 26.0422H31.528L31.53 26.0458C31.6346 26.2304 31.7402 26.4038 31.8584 26.5629C31.9073 26.5629 31.959 26.5565 32.009 26.5565C32.0603 26.5565 32.1099 26.5621 32.1598 26.5628V26.5275C32.0845 26.5184 32.0491 26.4956 32.0052 26.429L31.7256 26.0108L31.7335 26.0076C31.8593 25.958 31.9525 25.8722 31.9526 25.731C31.9525 25.5081 31.7792 25.4564 31.5772 25.4553C31.4926 25.4553 31.4154 25.4618 31.3186 25.4618C31.2243 25.4618 31.1289 25.4558 31.0764 25.4553V25.4895H31.0985C31.1484 25.4896 31.2193 25.4979 31.2193 25.6185V26.435C31.2193 26.4994 31.1589 26.5288 31.0985 26.5289H31.0764V26.5628C31.1536 26.5625 31.2269 26.5565 31.3024 26.5565C31.3921 26.5565 31.4828 26.5625 31.5717 26.5628V26.5289H31.5497C31.4765 26.5288 31.4111 26.5197 31.4111 26.3928V26.0422H31.4182ZM31.4183 25.9981H31.4111V25.5062L31.4173 25.5057C31.4393 25.504 31.4609 25.4995 31.5095 25.4995C31.6558 25.4995 31.7511 25.5946 31.7513 25.7411C31.7508 25.9329 31.6589 25.998 31.4968 25.9981H31.4183ZM31.4968 25.9844C31.6558 25.9829 31.736 25.9277 31.7375 25.7411C31.7366 25.6007 31.6494 25.5136 31.5095 25.513C31.4661 25.513 31.4457 25.517 31.4252 25.5191V25.9844H31.4968Z" fill="white"/>
<path fill-rule="evenodd" clip-rule="evenodd" d="M33.2575 26.253L33.2603 26.2498V25.6476C33.2603 25.5157 33.169 25.4965 33.1208 25.4965H33.0856V25.4482C33.1611 25.4482 33.2348 25.4546 33.3105 25.4546C33.3765 25.4546 33.4419 25.4482 33.5082 25.4482V25.4965H33.484C33.4165 25.4965 33.341 25.5093 33.341 25.7005V26.4314C33.341 26.4877 33.3426 26.5439 33.3505 26.5938H33.2897L32.4625 25.6715V26.3335C32.4625 26.4734 32.4896 26.5214 32.6133 26.5214H32.6406V26.5696C32.5716 26.5696 32.5024 26.5634 32.4334 26.5634C32.3608 26.5634 32.2871 26.5696 32.2148 26.5696V26.5214H32.2372C32.3481 26.5214 32.382 26.4458 32.382 26.3177V25.6408C32.382 25.551 32.308 25.4965 32.2358 25.4965H32.2148V25.4482C32.2757 25.4482 32.3388 25.4546 32.3997 25.4546C32.4474 25.4546 32.4943 25.4482 32.5425 25.4482L33.2575 26.253Z" fill="white"/>
<path fill-rule="evenodd" clip-rule="evenodd" d="M33.3519 26.6007L33.2859 26.5984L32.4705 25.6899V26.3336C32.4724 26.4735 32.4935 26.5131 32.6147 26.5146H32.6487V26.5767H32.6417C32.5723 26.5767 32.5033 26.57 32.4345 26.57C32.3628 26.57 32.2885 26.5767 32.2162 26.5767H32.209V26.5146H32.2385C32.3447 26.5142 32.3751 26.4457 32.3761 26.3174V25.641C32.3759 25.5554 32.3059 25.5036 32.2371 25.5036H32.209V25.4414H32.2162C32.2775 25.4414 32.3404 25.4477 32.401 25.4477C32.4482 25.4477 32.4947 25.4414 32.5486 25.4435L33.2549 26.2386V25.6477C33.2544 25.5202 33.1689 25.5043 33.1222 25.5036H33.0798V25.4414H33.0868C33.1627 25.4414 33.2367 25.4477 33.3118 25.4477C33.3773 25.4477 33.4431 25.4414 33.5093 25.4414H33.5164V25.5036H33.4854C33.4191 25.5052 33.3508 25.5112 33.3492 25.7006V26.4316C33.3492 26.4878 33.3506 26.5435 33.3588 26.5928L33.3596 26.6007H33.3519ZM33.291 26.5867H33.3437C33.3366 26.5387 33.3352 26.485 33.3352 26.4316V25.7006C33.3353 25.5078 33.4166 25.4899 33.4854 25.4895H33.5023V25.4553C33.439 25.4558 33.3755 25.4617 33.3118 25.4617C33.238 25.4617 33.1664 25.4558 33.0937 25.4553V25.4895H33.1221C33.1716 25.4899 33.2689 25.5116 33.2689 25.6477L33.2666 26.255L33.2637 26.2581L33.2587 26.2634L32.5439 25.4553C32.4961 25.4553 32.4495 25.4617 32.401 25.4617C32.3414 25.4617 32.2814 25.4558 32.223 25.4553V25.4895H32.2371C32.3127 25.4899 32.39 25.5469 32.39 25.641V26.3174C32.39 26.4464 32.3537 26.5284 32.2385 26.5289L32.223 26.5288V26.5629C32.2924 26.5624 32.364 26.5565 32.4344 26.5565C32.5018 26.5565 32.5686 26.5624 32.635 26.5629V26.5289H32.6146C32.4882 26.5288 32.4567 26.4735 32.4563 26.3336V25.6539L33.291 26.5867ZM33.2587 26.2532L33.2639 26.2485L33.2587 26.2532ZM33.2549 26.25V26.2496L33.2537 26.2483L33.2549 26.25Z" fill="white"/>
<path fill-rule="evenodd" clip-rule="evenodd" d="M33.7671 26.3402C33.751 26.3946 33.7316 26.4368 33.7316 26.4653C33.7316 26.5137 33.7993 26.5216 33.8521 26.5216H33.87V26.5699C33.8055 26.5664 33.74 26.5637 33.6753 26.5637C33.6175 26.5637 33.56 26.5664 33.502 26.5699V26.5216H33.5117C33.5743 26.5216 33.6275 26.4846 33.6513 26.4171L33.9083 25.68C33.9293 25.6204 33.9583 25.5401 33.9681 25.4805C34.0191 25.4629 34.0837 25.431 34.1141 25.4115C34.1191 25.4098 34.122 25.4082 34.1269 25.4082C34.1318 25.4082 34.1347 25.4082 34.1383 25.4133C34.143 25.426 34.1477 25.4404 34.1527 25.4533L34.4484 26.2936C34.4677 26.3497 34.4868 26.4091 34.5073 26.4575C34.5269 26.5026 34.5607 26.5216 34.6139 26.5216H34.6235V26.5699C34.5511 26.5664 34.4786 26.5637 34.4019 26.5637C34.3231 26.5637 34.2426 26.5664 34.1606 26.5699V26.5216H34.1783C34.2151 26.5216 34.2781 26.5153 34.2781 26.4751C34.2781 26.4543 34.2636 26.4109 34.2457 26.3593L34.1831 26.173H33.8185L33.7671 26.3402ZM34.0017 25.6285H33.9983L33.849 26.0832H34.1492L34.0017 25.6285Z" fill="white"/>
<path fill-rule="evenodd" clip-rule="evenodd" d="M34.6241 26.5768C34.5519 26.5737 34.4795 26.5701 34.403 26.5701C34.3242 26.5701 34.2441 26.5737 34.1621 26.5768L34.1547 26.5772V26.5144H34.1794C34.2166 26.5144 34.2719 26.5061 34.272 26.4751C34.2723 26.4568 34.2579 26.4128 34.2402 26.3617L34.1791 26.18H33.8247L33.7747 26.3423C33.7586 26.3969 33.739 26.4394 33.7393 26.4655C33.7399 26.5047 33.7998 26.5144 33.8532 26.5144H33.8779V26.5772L33.8706 26.5768C33.8063 26.5737 33.7408 26.5701 33.6765 26.5701C33.6192 26.5701 33.5611 26.5737 33.5036 26.5768L33.4961 26.5772V26.5144H33.5128C33.5725 26.5143 33.6223 26.4802 33.6456 26.4149L33.9029 25.6775C33.9236 25.6181 33.9528 25.5382 33.9666 25.4739C34.0171 25.4569 34.0817 25.4244 34.1125 25.405C34.117 25.4035 34.1215 25.4014 34.1279 25.4014C34.1319 25.4012 34.1405 25.4022 34.1457 25.4106C34.1503 25.4238 34.1554 25.4382 34.1603 25.4511L34.456 26.2914C34.475 26.3476 34.4942 26.407 34.5152 26.4546C34.5338 26.4974 34.5633 26.5143 34.6149 26.5144H34.6312V26.5772L34.6241 26.5768ZM34.1688 26.5625C34.2482 26.5597 34.3263 26.5566 34.403 26.5566C34.4775 26.5566 34.5475 26.5597 34.6174 26.5625V26.5289H34.615C34.5599 26.5292 34.522 26.5076 34.5023 26.4602C34.4814 26.4117 34.4619 26.352 34.4429 26.2958L34.1471 25.4555C34.1422 25.4427 34.1377 25.4283 34.1335 25.4169C34.1319 25.4153 34.1323 25.4153 34.131 25.4153H34.128C34.1247 25.4153 34.1228 25.4163 34.1186 25.4173C34.0878 25.4374 34.0234 25.4691 33.9756 25.4816C33.9658 25.5425 33.9368 25.6227 33.916 25.6823L33.6589 26.4195C33.6345 26.4893 33.578 26.529 33.5128 26.5289H33.5101V26.5625C33.5652 26.5597 33.6208 26.5566 33.6766 26.5566C33.7387 26.5566 33.8021 26.5597 33.8635 26.5625V26.5289H33.8532C33.8007 26.5281 33.7276 26.5224 33.7258 26.4655C33.7259 26.4336 33.7456 26.3925 33.7614 26.3382L33.7682 26.3402L33.7614 26.338L33.8143 26.1664H34.1889L34.2532 26.3571C34.2713 26.4088 34.2859 26.4516 34.2859 26.4751C34.2835 26.5243 34.2159 26.528 34.1795 26.5289H34.1688V26.5625ZM33.8403 26.0901L33.9941 25.6214H34.0027V25.6285L34.001 25.629L34.0027 25.6285V25.6214H34.0076L34.1602 26.0901H33.8403ZM33.8596 26.0761H34.1408L34.001 25.6456L33.8596 26.0761ZM33.9958 25.6306L33.9995 25.6294L33.9958 25.6306Z" fill="white"/>
<path fill-rule="evenodd" clip-rule="evenodd" d="M34.6939 25.5286C34.5734 25.5286 34.5686 25.5576 34.5444 25.6748H34.4961C34.5024 25.6298 34.5106 25.5848 34.5156 25.5382C34.5219 25.4931 34.525 25.4482 34.525 25.4018H34.5638C34.5764 25.45 34.6167 25.4482 34.66 25.4482H35.4891C35.5323 25.4482 35.5724 25.4467 35.5756 25.3984L35.614 25.405C35.6081 25.4482 35.6017 25.4917 35.5966 25.5351C35.5931 25.5785 35.5931 25.6217 35.5931 25.6651L35.5451 25.683C35.5423 25.6236 35.5342 25.5286 35.4263 25.5286H35.1629V26.3833C35.1629 26.5072 35.2192 26.5214 35.2962 26.5214H35.3269V26.5696C35.2641 26.5696 35.1519 26.5634 35.0649 26.5634C34.9687 26.5634 34.856 26.5696 34.7933 26.5696V26.5214H34.8239C34.9125 26.5214 34.9573 26.5135 34.9573 26.3866V25.5286H34.6939Z" fill="white"/>
<path fill-rule="evenodd" clip-rule="evenodd" d="M35.3272 26.5764C35.264 26.5764 35.1514 26.57 35.0651 26.57C34.9691 26.57 34.8566 26.5764 34.7937 26.5764H34.7866V26.5143H34.8242C34.9128 26.5122 34.9483 26.5111 34.9504 26.3865L34.9503 25.5353H34.6942V25.5212H34.9645V26.3865C34.9645 26.5154 34.9124 26.5281 34.8242 26.5284H34.8005V26.5626C34.864 26.5621 34.972 26.5562 35.0651 26.5562C35.149 26.5562 35.2566 26.5621 35.32 26.5626V26.5284H35.2964C35.219 26.5281 35.1564 26.5095 35.1563 26.3831V25.5212H35.4266C35.5345 25.5217 35.5486 25.6132 35.5517 25.673L35.5866 25.6602C35.5866 25.6182 35.5868 25.5762 35.5901 25.5342C35.5944 25.4928 35.6005 25.4517 35.6063 25.4107L35.5821 25.4064C35.5747 25.4532 35.5294 25.4558 35.4894 25.4551H34.6521C34.6142 25.4555 34.5732 25.4533 34.5586 25.4084H34.5324C34.532 25.4528 34.5288 25.496 34.5225 25.5388C34.5181 25.5831 34.5104 25.6257 34.5043 25.6679H34.5388C34.5599 25.5558 34.5738 25.5195 34.6942 25.5212V25.5353C34.5751 25.5374 34.5777 25.5575 34.5515 25.6762L34.5503 25.6817H34.4883L34.4893 25.6738C34.496 25.6286 34.5039 25.5835 34.5086 25.5372C34.5152 25.4922 34.5181 25.4477 34.5181 25.4016V25.3945H34.5692L34.5705 25.3996C34.5817 25.4401 34.611 25.4404 34.6521 25.4411H35.4894C35.5339 25.4404 35.5663 25.4398 35.5691 25.3979L35.5694 25.3901L35.5768 25.3916L35.6225 25.3988L35.6214 25.4059C35.6147 25.449 35.6087 25.4922 35.6038 25.5353C35.6005 25.5783 35.6005 25.6216 35.6005 25.6649V25.6698L35.5958 25.6717L35.539 25.6925L35.5387 25.6832C35.5345 25.6227 35.5281 25.5353 35.4266 25.5353H35.1701V26.3831C35.1717 26.5042 35.2198 26.5128 35.2964 26.5143H35.3338V26.5764H35.3272Z" fill="white"/>
<path fill-rule="evenodd" clip-rule="evenodd" d="M35.6738 26.5214H35.6963C35.7542 26.5214 35.815 26.5135 35.815 26.4298V25.5882C35.815 25.5045 35.7542 25.4965 35.6963 25.4965H35.6738V25.4482C35.7365 25.4482 35.8327 25.4546 35.9114 25.4546C35.9919 25.4546 36.0883 25.4482 36.164 25.4482V25.4965H36.1414C36.0833 25.4965 36.0223 25.5045 36.0223 25.5882V26.4298C36.0223 26.5135 36.0833 26.5214 36.1414 26.5214H36.164V26.5696C36.0868 26.5696 35.9903 26.5634 35.9101 26.5634C35.8312 26.5634 35.7365 26.5696 35.6738 26.5696V26.5214Z" fill="white"/>
<path fill-rule="evenodd" clip-rule="evenodd" d="M36.163 26.5767C36.0854 26.5767 35.9893 26.57 35.9091 26.57C35.8305 26.57 35.7356 26.5767 35.6729 26.5767H35.666V26.5146H35.6954C35.7533 26.5136 35.8067 26.5085 35.8071 26.43V25.5884C35.8067 25.5099 35.7533 25.5046 35.6954 25.5036H35.666V25.4414H35.6729C35.7356 25.4414 35.8323 25.4477 35.9104 25.4477C35.9905 25.4477 36.0869 25.4414 36.163 25.4414H36.1697V25.5036H36.1405C36.0817 25.5046 36.0289 25.5099 36.0283 25.5884V26.43C36.0289 26.5085 36.0817 26.5136 36.1405 26.5146H36.1697V26.5767H36.163ZM36.1557 26.5628V26.5288H36.1405C36.0829 26.5288 36.0147 26.5187 36.0147 26.43V25.5884C36.0147 25.4995 36.0829 25.4896 36.1405 25.4895H36.1557V25.4553C36.0817 25.4558 35.9886 25.4617 35.9104 25.4617C35.8342 25.4617 35.7422 25.4558 35.6799 25.4553V25.4895H35.6955C35.7525 25.4896 35.821 25.4995 35.8211 25.5884V26.43C35.821 26.5187 35.7525 26.5288 35.6955 26.5288H35.6799V26.5628C35.7418 26.5621 35.8326 26.5565 35.9091 26.5565C35.987 26.5565 36.08 26.5624 36.1557 26.5628Z" fill="white"/>
<path fill-rule="evenodd" clip-rule="evenodd" d="M36.8035 25.4243C37.146 25.4243 37.419 25.6366 37.419 25.9788C37.419 26.3483 37.1539 26.5939 36.8118 26.5939C36.4711 26.5939 36.2109 26.3626 36.2109 26.0171C36.2109 25.6831 36.4695 25.4243 36.8035 25.4243ZM36.8278 26.5232C37.1396 26.5232 37.1939 26.2483 37.1939 26.0141C37.1939 25.7793 37.0673 25.495 36.8005 25.495C36.5194 25.495 36.4358 25.7457 36.4358 25.9608C36.4358 26.2483 36.5676 26.5232 36.8278 26.5232Z" fill="white"/>
<path fill-rule="evenodd" clip-rule="evenodd" d="M36.2051 26.0173C36.2057 25.6794 36.4673 25.418 36.8048 25.4175V25.4315C36.4745 25.4315 36.2191 25.6868 36.2187 26.0173C36.2194 26.3588 36.4757 26.5867 36.8132 26.5869C37.1518 26.5867 37.4131 26.3447 37.4135 25.9787C37.4132 25.6408 37.1445 25.4318 36.8048 25.4315V25.4175C37.1497 25.4178 37.4266 25.6322 37.4272 25.9787C37.4268 26.3521 37.1585 26.6002 36.8132 26.6009C36.4695 26.6002 36.2057 26.3665 36.2051 26.0173ZM36.4301 25.9609C36.4306 25.7447 36.5149 25.488 36.8018 25.488C37.0746 25.4886 37.2018 25.7781 37.2023 26.0142C37.2018 26.2484 37.1467 26.5299 36.8292 26.5299V26.5163C37.1346 26.5161 37.1877 26.2484 37.1882 26.0142C37.1882 25.7815 37.0629 25.5026 36.8018 25.5022C36.5262 25.5025 36.4448 25.7469 36.444 25.9609C36.4441 26.2471 36.5748 26.5159 36.8292 26.5163V26.5299C36.5625 26.5297 36.4306 26.2501 36.4301 25.9609Z" fill="white"/>
<path fill-rule="evenodd" clip-rule="evenodd" d="M38.5016 26.253L38.505 26.2498V25.6476C38.505 25.5157 38.4131 25.4965 38.3649 25.4965H38.33V25.4482C38.4053 25.4482 38.4793 25.4546 38.5546 25.4546C38.6206 25.4546 38.6865 25.4482 38.7524 25.4482V25.4965H38.7283C38.661 25.4965 38.5851 25.5093 38.5851 25.7005V26.4314C38.5851 26.4877 38.5868 26.5439 38.595 26.5938H38.5339L37.7064 25.6715V26.3335C37.7064 26.4734 37.7338 26.5214 37.8572 26.5214H37.8848V26.5696C37.8156 26.5696 37.7467 26.5634 37.6776 26.5634C37.6052 26.5634 37.5313 26.5696 37.459 26.5696V26.5214H37.4815C37.5926 26.5214 37.6261 26.4458 37.6261 26.3177V25.6408C37.6261 25.551 37.5524 25.4965 37.4798 25.4965H37.459V25.4482C37.52 25.4482 37.5826 25.4546 37.6438 25.4546C37.6919 25.4546 37.7382 25.4482 37.7866 25.4482L38.5016 26.253Z" fill="white"/>
<path fill-rule="evenodd" clip-rule="evenodd" d="M38.5959 26.6007L38.5295 26.5984L37.7142 25.6899V26.3337C37.7161 26.4735 37.7373 26.5129 37.8579 26.5143H37.8925V26.5767H37.8857C37.8162 26.5767 37.7472 26.5702 37.6785 26.5702C37.6065 26.5702 37.5325 26.5767 37.4597 26.5767H37.4531V26.5143H37.4824C37.5882 26.514 37.6188 26.4457 37.62 26.3178V25.641C37.62 25.5554 37.5498 25.5036 37.4807 25.5036H37.4531V25.4414H37.4597C37.5213 25.4414 37.5839 25.4477 37.6446 25.4477C37.6923 25.4477 37.7384 25.4414 37.7929 25.4439L38.4988 26.2386V25.6477C38.4983 25.5202 38.4127 25.5046 38.3658 25.5036H38.3235V25.4414H38.3309C38.4063 25.4414 38.4805 25.4477 38.5553 25.4477C38.621 25.4477 38.6866 25.4414 38.7534 25.4414H38.7601V25.5036H38.7291C38.6629 25.5053 38.5945 25.5114 38.5932 25.7006V26.4316C38.5932 26.4878 38.5945 26.5439 38.6023 26.5928L38.6037 26.6007H38.5959ZM38.5348 26.5867H38.5874C38.5806 26.5384 38.579 26.485 38.579 26.4316V25.7006C38.579 25.5075 38.6602 25.4899 38.7291 25.4895H38.7465V25.4553C38.6827 25.4558 38.6195 25.4617 38.5553 25.4617C38.4822 25.4617 38.4104 25.4558 38.3376 25.4553V25.4895H38.3658C38.4155 25.4899 38.5125 25.5119 38.5125 25.6477L38.5108 26.255L38.5077 26.2581L38.5025 26.2634L37.7876 25.4553C37.74 25.4553 37.6933 25.4617 37.6446 25.4617C37.5854 25.4617 37.5251 25.4558 37.4666 25.4553V25.4895H37.4808C37.5563 25.4899 37.6339 25.5469 37.6339 25.641V26.3178C37.6339 26.4464 37.598 26.5284 37.4824 26.5289L37.4666 26.5288V26.5629C37.5364 26.5624 37.6079 26.5565 37.6785 26.5565C37.7455 26.5565 37.8121 26.5624 37.8787 26.5629V26.5289H37.858C37.7319 26.5288 37.7003 26.4735 37.7003 26.3337V25.6536L38.5348 26.5867ZM38.5025 26.2532L38.5076 26.2485L38.5025 26.2532ZM38.4988 26.25V26.2496L38.4975 26.2483L38.4988 26.25Z" fill="white"/>
<path fill-rule="evenodd" clip-rule="evenodd" d="M39.0107 26.3402C38.995 26.3946 38.9756 26.4368 38.9756 26.4653C38.9756 26.5137 39.0433 26.5216 39.0959 26.5216H39.1139V26.5699C39.0495 26.5664 38.9836 26.5637 38.9193 26.5637C38.8615 26.5637 38.8037 26.5664 38.7461 26.5699V26.5216H38.7552C38.8182 26.5216 38.8714 26.4846 38.8949 26.4171L39.1525 25.68C39.1732 25.6204 39.2023 25.5401 39.2115 25.4805C39.2632 25.4629 39.3273 25.431 39.3582 25.4115C39.3627 25.4098 39.3659 25.4082 39.3709 25.4082C39.3756 25.4082 39.3786 25.4082 39.3819 25.4133C39.3868 25.426 39.3916 25.4404 39.3965 25.4533L39.6921 26.2936C39.7112 26.3497 39.7306 26.4091 39.7516 26.4575C39.7709 26.5026 39.8046 26.5216 39.8575 26.5216H39.8674V26.5699C39.795 26.5664 39.7226 26.5637 39.6455 26.5637C39.5669 26.5637 39.4865 26.5664 39.4044 26.5699V26.5216H39.4222C39.459 26.5216 39.522 26.5153 39.522 26.4751C39.522 26.4543 39.5076 26.4109 39.4896 26.3593L39.427 26.173H39.0624L39.0107 26.3402ZM39.2457 25.6285H39.2425L39.0927 26.0832H39.3936L39.2457 25.6285Z" fill="white"/>
<path fill-rule="evenodd" clip-rule="evenodd" d="M39.8678 26.5767C39.7954 26.5739 39.7233 26.5703 39.6467 26.5703C39.5683 26.5703 39.4878 26.5739 39.4059 26.5767L39.3988 26.5771V26.5146H39.4233C39.4606 26.5146 39.5159 26.506 39.516 26.475C39.5164 26.4567 39.5019 26.4129 39.4838 26.3616L39.4229 26.1799H39.0682L39.0186 26.3422C39.0024 26.3973 38.9835 26.4393 38.9837 26.4653C38.9837 26.5046 39.0439 26.5146 39.097 26.5146H39.1216V26.5771L39.1143 26.5767C39.0502 26.5739 38.9844 26.5703 38.9204 26.5703C38.8628 26.5703 38.8052 26.5739 38.7472 26.5767L38.7402 26.5771V26.5146H38.7563C38.8162 26.5143 38.8664 26.48 38.8899 26.4148L39.1468 25.6774C39.1674 25.618 39.1964 25.5381 39.2105 25.4741C39.261 25.4566 39.3255 25.4244 39.3568 25.405C39.3609 25.4034 39.3654 25.4014 39.372 25.4014C39.3761 25.4011 39.3846 25.4021 39.3895 25.4109C39.3944 25.4235 39.3991 25.4381 39.4043 25.451L39.6998 26.2913C39.7191 26.3475 39.7383 26.4069 39.7591 26.4548C39.778 26.4973 39.8071 26.5142 39.8585 26.5146H39.8751V26.5771L39.8678 26.5767ZM39.4124 26.5625C39.4919 26.5596 39.5701 26.5565 39.6467 26.5565C39.7214 26.5565 39.7912 26.5596 39.8614 26.5624L39.8612 26.5288H39.8585C39.8041 26.5289 39.7662 26.5075 39.7461 26.4601C39.725 26.4116 39.7059 26.352 39.6866 26.2959L39.391 25.4554C39.3862 25.4426 39.3811 25.4282 39.3774 25.4171C39.376 25.4152 39.3761 25.4152 39.3752 25.4152H39.372C39.3685 25.4152 39.3668 25.4163 39.3629 25.4174C39.3315 25.4371 39.2672 25.4693 39.2198 25.4815C39.2098 25.5424 39.1806 25.6225 39.16 25.6822L38.9027 26.4194C38.8782 26.4892 38.8221 26.5289 38.7564 26.5288H38.754V26.5624C38.8093 26.5596 38.8645 26.5565 38.9204 26.5565C38.9826 26.5565 39.0462 26.5596 39.1079 26.5624V26.5288H39.097C39.0448 26.5281 38.9716 26.5225 38.9695 26.4653C38.9699 26.4336 38.9897 26.3926 39.0054 26.3382L39.0119 26.3402L39.0054 26.338L39.0583 26.1663H39.4328L39.4973 26.3571C39.515 26.4088 39.5296 26.4516 39.5296 26.475C39.5273 26.5242 39.4598 26.5279 39.4233 26.5288H39.4124V26.5625ZM39.0842 26.09L39.2384 25.6213H39.2468V25.6284L39.2449 25.6289L39.2468 25.6284V25.6213H39.2516L39.4035 26.09H39.0842ZM39.1035 26.076H39.3846L39.2449 25.6458L39.1035 26.076ZM39.2401 25.6305L39.2433 25.6294L39.2401 25.6305Z" fill="white"/>
<path fill-rule="evenodd" clip-rule="evenodd" d="M40.2726 26.4121C40.2726 26.4767 40.3172 26.4957 40.3688 26.5024C40.4345 26.5072 40.5069 26.5072 40.581 26.499C40.6484 26.4909 40.7062 26.4526 40.735 26.4121C40.7606 26.3768 40.7751 26.3318 40.7849 26.2965H40.8314C40.8137 26.3881 40.7912 26.4782 40.772 26.5696C40.6309 26.5696 40.4891 26.5634 40.3479 26.5634C40.2064 26.5634 40.0652 26.5696 39.9238 26.5696V26.5214H39.9461C40.004 26.5214 40.0669 26.5135 40.0669 26.4138V25.5882C40.0669 25.5045 40.004 25.4965 39.9461 25.4965H39.9238V25.4482C40.0088 25.4482 40.0925 25.4546 40.1775 25.4546C40.2596 25.4546 40.3398 25.4482 40.4219 25.4482V25.4965H40.3815C40.3205 25.4965 40.2726 25.4982 40.2726 25.5833V26.4121Z" fill="white"/>
<path fill-rule="evenodd" clip-rule="evenodd" d="M40.7712 26.5767C40.6296 26.5767 40.4881 26.5702 40.3472 26.5702C40.2058 26.5702 40.0645 26.5767 39.9228 26.5767H39.916V26.5146H39.9453C40.0034 26.5132 40.0586 26.5091 40.0592 26.414V25.5881C40.0586 25.5099 40.0036 25.5046 39.9453 25.5036H39.916V25.4414H39.9228C40.0083 25.4414 40.0919 25.4477 40.1766 25.4477C40.2584 25.4477 40.3385 25.4414 40.4212 25.4414H40.4276V25.5036H40.3808C40.3185 25.5052 40.2798 25.5024 40.2784 25.5835V26.4122C40.2788 26.4723 40.3182 26.4884 40.3684 26.4956C40.3967 26.4975 40.4266 26.4985 40.4575 26.4985C40.4968 26.4985 40.5376 26.4967 40.5791 26.4923C40.6445 26.4845 40.7008 26.4467 40.7286 26.4084C40.7534 26.3741 40.7674 26.33 40.7771 26.2951L40.7785 26.2898H40.8391L40.8377 26.2982C40.8195 26.39 40.7973 26.4797 40.7779 26.5713L40.7766 26.5767H40.7712ZM40.7654 26.5628C40.784 26.4755 40.805 26.3902 40.8224 26.3036H40.7892C40.7794 26.3385 40.765 26.3817 40.7399 26.4166C40.7098 26.4582 40.6503 26.4975 40.5806 26.5061C40.5386 26.5104 40.4969 26.5126 40.4575 26.5126C40.4264 26.5126 40.3963 26.5112 40.3671 26.5091C40.3148 26.5034 40.2643 26.481 40.2644 26.4122V25.5835C40.2644 25.4941 40.3209 25.4895 40.3808 25.4895H40.4139V25.4553C40.3348 25.4558 40.2567 25.4618 40.1767 25.4618C40.0937 25.4618 40.0123 25.4558 39.93 25.4553V25.4895H39.9454C40.0026 25.4895 40.0728 25.4995 40.0728 25.5881V26.414C40.0728 26.518 40.003 26.5288 39.9454 26.5288H39.93V26.5628C40.0688 26.5625 40.2077 26.5565 40.3472 26.5565C40.4869 26.5565 40.6263 26.5625 40.7654 26.5628Z" fill="white"/>
<path fill-rule="evenodd" clip-rule="evenodd" d="M40.8117 25.4028C40.9086 25.4028 40.9809 25.4773 40.9809 25.5724C40.9809 25.6674 40.9086 25.7411 40.8117 25.7411C40.715 25.7411 40.6426 25.6674 40.6426 25.5724C40.6426 25.4773 40.715 25.4028 40.8117 25.4028ZM40.8117 25.7096C40.8876 25.7096 40.9455 25.6451 40.9455 25.5724C40.9455 25.4995 40.8883 25.4345 40.8117 25.4345C40.7356 25.4345 40.6777 25.4995 40.6777 25.5724C40.6777 25.6451 40.7356 25.7096 40.8117 25.7096ZM40.7276 25.6616V25.6534C40.7482 25.6504 40.7521 25.6509 40.7521 25.6383V25.5129C40.7521 25.4953 40.7504 25.4892 40.7282 25.4902V25.4815H40.8148C40.8446 25.4815 40.872 25.4958 40.872 25.5265C40.872 25.5516 40.8555 25.5703 40.832 25.5775L40.8598 25.6163C40.8728 25.6339 40.8876 25.6504 40.8971 25.6562V25.6616H40.8642C40.8483 25.6616 40.8344 25.6284 40.8033 25.5838H40.7846V25.6399C40.7846 25.6509 40.7885 25.6504 40.8093 25.6534V25.6616H40.7276ZM40.7846 25.5724H40.8046C40.8264 25.5724 40.8365 25.5559 40.8365 25.5292C40.8365 25.5023 40.8209 25.4928 40.8035 25.4928H40.7846V25.5724Z" fill="white"/>
<path fill-rule="evenodd" clip-rule="evenodd" d="M30.7773 19.7765C30.7773 18.2738 31.9955 17.0557 33.4981 17.0557C35.0008 17.0557 36.219 18.2738 36.219 19.7765C36.219 21.2792 35.0008 22.4974 33.4981 22.4974C31.9955 22.4974 30.7773 21.2792 30.7773 19.7765Z" fill="#0069AA"/>
<path fill-rule="evenodd" clip-rule="evenodd" d="M35.1444 19.7234C35.1434 19.0266 34.7078 18.4324 34.0941 18.197V21.2496C34.7078 21.0139 35.1434 20.4203 35.1444 19.7234ZM32.9234 21.2489V18.1973C32.3102 18.4334 31.8754 19.0268 31.8737 19.7233C31.8754 20.4197 32.3102 21.0131 32.9234 21.2489ZM33.5091 17.1432C32.0841 17.1438 30.9297 18.2984 30.9295 19.7234C30.9297 21.1481 32.0841 22.3026 33.5091 22.3028C34.934 22.3026 36.0886 21.1481 36.089 19.7234C36.0886 18.2984 34.934 17.1438 33.5091 17.1432ZM33.5027 22.5463C31.9435 22.5537 30.6602 21.2905 30.6602 19.7528C30.6602 18.0722 31.9435 16.9099 33.5027 16.9102H34.2334C35.7742 16.9099 37.1805 18.0717 37.1805 19.7528C37.1805 21.29 35.7742 22.5463 34.2334 22.5463H33.5027Z" fill="white"/>
</g>
<defs>
<clipPath id="clip0_8786_11712">
<rect width="22" height="13.6552" fill="white" transform="translate(0 0.5)"/>
</clipPath>
<clipPath id="clip1_8786_11712">
<rect width="22" height="13.2" fill="white" transform="translate(23 0.5)"/>
</clipPath>
<clipPath id="clip2_8786_11712">
<rect width="22" height="13.2" fill="white" transform="translate(0 15.1553)"/>
</clipPath>
<clipPath id="clip3_8786_11712">
<rect width="22" height="13.2" fill="white" transform="translate(23 15.1553)"/>
</clipPath>
</defs>
</svg>
