<svg width="40" height="26" viewBox="0 0 40 26" fill="none" xmlns="http://www.w3.org/2000/svg">
<rect x="0.25" y="0.25" width="39.5" height="25.5" rx="1.75" fill="white"/>
<path fill-rule="evenodd" clip-rule="evenodd" d="M19.521 18.5463C18.1948 19.6921 16.4745 20.3838 14.5947 20.3838C10.4003 20.3838 7 16.94 7 12.6919C7 8.44378 10.4003 5 14.5947 5C16.4745 5 18.1948 5.69169 19.521 6.83748C20.8472 5.6917 22.5675 5.00001 24.4473 5.00001C28.6418 5.00001 32.0421 8.44379 32.0421 12.6919C32.0421 16.94 28.6418 20.3838 24.4473 20.3838C22.5675 20.3838 20.8472 19.6921 19.521 18.5463Z" fill="#ED0006"/>
<path fill-rule="evenodd" clip-rule="evenodd" d="M19.5215 18.5463C21.1545 17.1355 22.1899 15.0362 22.1899 12.6919C22.1899 10.3476 21.1545 8.2483 19.5215 6.83746C20.8477 5.69168 22.568 5 24.4478 5C28.6422 5 32.0425 8.44378 32.0425 12.6919C32.0425 16.94 28.6422 20.3838 24.4478 20.3838C22.568 20.3838 20.8477 19.6921 19.5215 18.5463Z" fill="#F9A000"/>
<path fill-rule="evenodd" clip-rule="evenodd" d="M19.5219 18.5462C21.1549 17.1353 22.1903 15.036 22.1903 12.6918C22.1903 10.3475 21.1549 8.24824 19.5219 6.8374C17.889 8.24824 16.8535 10.3475 16.8535 12.6918C16.8535 15.036 17.889 17.1353 19.5219 18.5462Z" fill="#FF5E00"/>
<rect x="0.25" y="0.25" width="39.5" height="25.5" rx="1.75" stroke="#B2B2B2" stroke-width="0.5" style="mix-blend-mode:multiply"/>
</svg>
