<svg width="37" height="37" viewBox="0 0 37 37" fill="none" xmlns="http://www.w3.org/2000/svg">
<rect width="37" height="37" rx="18.5" fill="#FF0000"/>
<path fill-rule="evenodd" clip-rule="evenodd" d="M27.548 10.8996C28.5385 11.1662 29.3195 11.9472 29.5862 12.9378C30.0815 14.7474 30.0624 18.519 30.0624 18.519C30.0624 18.519 30.0624 22.2715 29.5862 24.0811C29.3195 25.0717 28.5385 25.8527 27.548 26.1193C25.7384 26.5955 18.5 26.5955 18.5 26.5955C18.5 26.5955 11.2806 26.5955 9.4519 26.1003C8.46138 25.8336 7.68039 25.0526 7.41371 24.0621C6.9375 22.2715 6.9375 18.4999 6.9375 18.4999C6.9375 18.4999 6.9375 14.7474 7.41371 12.9378C7.68039 11.9472 8.48043 11.1472 9.4519 10.8805C11.2615 10.4043 18.5 10.4043 18.5 10.4043C18.5 10.4043 25.7384 10.4043 27.548 10.8996ZM22.2144 18.5001L16.195 21.9669V15.0333L22.2144 18.5001Z" fill="white"/>
</svg>
