<svg width="600" height="600" viewBox="0 0 600 600" fill="none" xmlns="http://www.w3.org/2000/svg">
<g clip-path="url(#clip0)">
<path d="M72.8913 140.873C72.8913 152.992 62.9317 162.946 50.807 162.946C38.6823 162.946 28.7227 152.992 28.7227 140.873C28.7227 128.754 38.6823 118.8 50.807 118.8C62.9317 118.8 72.8913 128.322 72.8913 140.873Z" fill="#A0CEDE" fill-opacity="0.2"/>
<path d="M527.568 75.9526C538.33 75.9526 547.054 67.2328 547.054 56.4763C547.054 45.7198 538.33 37 527.568 37C516.806 37 508.082 45.7198 508.082 56.4763C508.082 67.2328 516.806 75.9526 527.568 75.9526Z" fill="#A0CEDE" fill-opacity="0.2"/>
<path d="M555.715 411.809C558.747 341.694 524.104 281.967 471.708 247.775C461.749 241.283 455.686 230.896 454.387 219.21C454.387 218.777 454.387 217.912 453.954 217.479C444.427 140.872 372.545 86.7712 295.9 97.1585C222.718 107.113 169.889 145.633 177.684 220.076C177.684 220.508 177.684 220.941 177.684 221.374C178.983 241.716 162.961 258.595 143.042 259.028C138.711 259.028 134.381 259.461 130.051 259.894C43.4455 269.416 -23 366 -23 423C-18.6697 463.251 -6 503 53 539C112 575 454.592 571.025 502 530.5C549.409 489.975 553.55 456.821 555.715 411.809Z" fill="#A0CEDE" fill-opacity="0.2"/>
<path d="M474.615 460.517H97.3721V208.033C97.3721 203.943 100.72 200.225 105.185 200.225H466.802C470.894 200.225 474.615 203.571 474.615 208.033V460.517Z" fill="#B4B3E6"/>
<path d="M475.731 461.259H96.6282V208.032C96.6282 203.198 100.349 199.479 105.185 199.479H466.802C471.639 199.479 475.359 203.198 475.359 208.032V461.259H475.731ZM98.4883 459.4H473.499V208.032C473.499 204.313 470.523 201.339 466.802 201.339H105.185C101.465 201.339 98.4883 204.313 98.4883 208.032V459.4Z" fill="black"/>
<path d="M310.176 446.014H261.811V449.732H310.176V446.014Z" fill="#B4B3E6"/>
<path d="M311.292 450.847H261.067V444.897H311.292V450.847ZM262.927 448.988H309.432V447.129H262.927V448.988Z" fill="black"/>
<path d="M288.97 211.007C288.97 212.494 287.482 213.982 285.993 213.982C284.505 213.982 283.017 212.866 283.017 211.007C283.017 209.148 284.505 208.032 285.993 208.032C287.854 208.032 288.97 209.52 288.97 211.007Z" fill="#B4B3E6"/>
<path d="M285.993 214.725C283.761 214.725 281.901 212.866 281.901 211.007C281.901 208.775 283.761 207.288 285.993 207.288C288.225 207.288 290.086 209.147 290.086 211.007C290.086 212.866 288.225 214.725 285.993 214.725ZM285.993 209.147C284.877 209.147 284.133 209.891 284.133 211.007C284.133 212.122 284.877 212.866 285.993 212.866C287.109 212.866 287.853 212.122 287.853 211.007C288.225 209.891 287.109 209.147 285.993 209.147Z" fill="black"/>
<path d="M514.423 506.251H56.8207C51.9842 506.251 47.8918 503.648 47.8918 500.302V491.006C47.8918 489.89 49.008 489.146 50.4961 489.146H521.491C522.979 489.146 524.096 489.89 524.096 491.006V500.302C524.096 503.277 519.631 506.251 514.423 506.251Z" fill="black"/>
<path d="M514.423 506.995H56.8206C51.24 506.995 46.7756 504.021 46.7756 499.93V490.634C46.7756 489.147 48.2638 488.031 50.1239 488.031H521.119C522.979 488.031 524.467 489.147 524.467 490.634V499.93C524.839 504.021 520.375 506.995 514.423 506.995ZM50.496 489.89C49.3799 489.89 49.0078 490.262 49.0078 490.634V499.93C49.0078 502.533 52.7282 505.136 57.1926 505.136H514.795C519.259 505.136 523.351 502.533 523.351 499.93V490.634C523.351 490.262 522.607 489.89 521.863 489.89H50.496Z" fill="black"/>
<path d="M122.671 440.807H449.689C454.153 440.807 458.245 437.089 458.245 432.255V229.227C458.245 224.765 454.525 220.675 449.689 220.675H122.671C118.206 220.675 114.114 224.393 114.114 229.227V432.627C114.114 437.089 117.834 440.807 122.671 440.807Z" fill="white"/>
<path d="M449.689 441.923H122.671C117.462 441.923 113.37 437.832 113.37 432.626V229.227C113.37 224.021 117.462 219.931 122.671 219.931H449.689C454.897 219.931 458.99 224.021 458.99 229.227V432.626C458.99 437.46 454.897 441.923 449.689 441.923ZM122.671 221.79C118.578 221.79 115.23 225.137 115.23 229.227V432.626C115.23 436.717 118.578 440.063 122.671 440.063H449.689C453.781 440.063 457.129 436.717 457.129 432.626V229.227C457.129 225.137 453.781 221.79 449.689 221.79H122.671Z" fill="black"/>
<path d="M456.385 235.547V229.598C456.385 225.508 452.665 221.789 448.2 221.789H123.787C119.322 221.789 115.602 225.136 115.602 229.598V235.547H456.385Z" fill="#807FD5"/>
<path d="M427.739 229.226C427.739 230.342 426.995 231.086 425.879 231.086C424.762 231.086 424.018 230.342 424.018 229.226C424.018 228.111 424.762 227.367 425.879 227.367C426.995 227.367 427.739 228.111 427.739 229.226Z" fill="white"/>
<path d="M433.319 231.086C434.347 231.086 435.18 230.253 435.18 229.226C435.18 228.2 434.347 227.367 433.319 227.367C432.292 227.367 431.459 228.2 431.459 229.226C431.459 230.253 432.292 231.086 433.319 231.086Z" fill="white"/>
<path d="M441.132 231.086C442.159 231.086 442.992 230.253 442.992 229.226C442.992 228.2 442.159 227.367 441.132 227.367C440.104 227.367 439.271 228.2 439.271 229.226C439.271 230.253 440.104 231.086 441.132 231.086Z" fill="white"/>
<path opacity="0.43" d="M425.878 259.719H143.504V412.176H425.878V259.719Z" fill="#A0CEDE" fill-opacity="0.5"/>
<path d="M98.8604 459.771L49.3799 488.775L521.491 488.404L475.731 459.771H98.8604Z" fill="#B4B3E6"/>
<path d="M49.7519 489.52L49.3798 488.405L49.0078 487.661L98.8604 458.285H99.2324H476.475L525.212 489.148L49.7519 489.52ZM99.2324 460.516L53.1002 487.661L518.143 487.289L475.731 460.516H99.2324Z" fill="black"/>
<g opacity="0.26">
<path opacity="0.26" d="M161.362 459.772L128.623 479.108L442.248 478.737L412.113 459.772H161.362Z" fill="#B4B3E6"/>
<path opacity="0.26" d="M124.903 479.851L160.99 458.656H412.113L445.596 479.851H124.903ZM161.734 460.515L132.343 477.992H439.271L412.113 460.887L161.734 460.515Z" fill="black"/>
</g>
<path d="M242.094 323.305C240.605 323.305 239.117 321.818 239.117 320.33C239.117 314.009 233.909 308.803 227.584 308.803C221.26 308.803 216.051 314.009 216.051 320.33C216.051 321.818 214.563 323.305 213.075 323.305C211.587 323.305 210.099 321.818 210.099 320.33C210.099 310.662 217.911 302.854 227.584 302.854C237.257 302.854 245.07 310.662 245.07 320.33C245.07 322.19 243.582 323.305 242.094 323.305Z" fill="black"/>
<path d="M359.284 323.304C357.796 323.304 356.308 321.817 356.308 320.329C356.308 314.008 351.099 308.802 344.775 308.802C338.45 308.802 333.242 314.008 333.242 320.329C333.242 321.817 331.754 323.304 330.266 323.304C328.777 323.304 327.289 321.817 327.289 320.329C327.289 310.661 335.102 302.853 344.775 302.853C354.448 302.853 362.261 310.661 362.261 320.329C361.888 322.189 360.772 323.304 359.284 323.304Z" fill="black"/>
<path d="M285.994 385.774C259.579 385.774 237.629 364.207 237.257 337.806C237.257 336.691 237.629 335.575 238.373 334.831C239.117 334.088 240.234 333.716 241.35 333.716H334.73V336.691C334.73 363.835 312.78 385.774 285.994 385.774ZM242.838 340.037C244.326 362.348 263.3 380.197 285.622 380.197C308.316 380.197 326.918 362.348 328.406 340.037H242.838Z" fill="black"/>
<path d="M456.385 236.664H193.357C192.613 236.664 192.241 236.292 192.241 235.548C192.241 234.804 192.613 234.433 193.357 234.433H456.757C457.501 234.433 457.873 234.804 457.873 235.548C457.501 236.292 457.129 236.664 456.385 236.664Z" fill="black"/>
<path d="M404.672 200.964V167.498C404.672 149.649 417.694 135.147 434.063 135.147H457.873C473.871 135.147 487.264 149.649 487.264 167.498V200.964C487.264 218.813 474.243 233.315 457.873 233.315H434.063C417.694 233.315 404.672 218.813 404.672 200.964ZM433.691 150.393C425.134 150.393 418.066 158.202 418.066 167.498V200.964C418.066 210.26 425.134 218.069 433.691 218.069H457.501C466.058 218.069 473.127 210.26 473.127 200.964V167.498C473.127 158.202 466.058 150.393 457.501 150.393H433.691Z" fill="black"/>
<path d="M457.501 234.432H433.691C416.949 234.432 403.556 219.558 403.556 200.965V167.499C403.556 149.279 416.949 134.033 433.691 134.033H457.501C474.243 134.033 487.636 148.907 487.636 167.499V200.965C487.636 219.186 474.243 234.432 457.501 234.432ZM433.691 135.892C418.066 135.892 405.416 150.023 405.416 167.499V200.965C405.416 218.442 418.066 232.572 433.691 232.572H457.501C473.127 232.572 485.776 218.442 485.776 200.965V167.499C485.776 150.023 473.127 135.892 457.501 135.892H433.691ZM457.501 219.186H433.691C424.762 219.186 417.321 211.005 417.321 200.965V167.499C417.321 157.459 424.762 149.279 433.691 149.279H457.501C466.43 149.279 473.871 157.459 473.871 167.499V200.965C473.871 211.005 466.802 219.186 457.501 219.186ZM433.691 151.138C425.506 151.138 419.182 158.575 419.182 167.499V200.965C419.182 209.89 425.878 217.327 433.691 217.327H457.501C465.686 217.327 472.01 209.89 472.01 200.965V167.499C472.01 158.575 465.314 151.138 457.501 151.138H433.691Z" fill="white"/>
<path d="M399.836 289.092H491.728C499.541 289.092 505.866 282.771 505.866 274.962V203.568C505.866 195.759 499.541 189.438 491.728 189.438H399.836C392.023 189.438 385.698 195.759 385.698 203.568V274.962C385.698 282.771 392.023 289.092 399.836 289.092Z" fill="#FD6E35"/>
<path d="M494.333 289.836H460.85C460.477 289.836 460.105 289.464 460.105 289.092C460.105 288.72 460.477 288.348 460.85 288.348H494.333C500.285 288.348 504.75 283.514 504.75 277.937V211.004C504.75 210.633 505.122 210.261 505.494 210.261C505.866 210.261 506.238 210.633 506.238 211.004V277.565C506.61 284.258 501.029 289.836 494.333 289.836Z" fill="black"/>
<path opacity="0.25" d="M408.02 280.169H483.543C491.356 280.169 497.681 273.848 497.681 266.039V216.955C497.681 209.147 491.356 202.825 483.543 202.825H408.02C400.208 202.825 393.883 209.147 393.883 216.955V266.039C393.883 273.848 400.208 280.169 408.02 280.169Z" fill="white"/>
<path d="M431.831 230.714C431.831 222.905 438.155 216.584 445.968 216.584C453.781 216.584 460.105 222.905 460.105 230.714C460.105 237.035 456.013 242.241 450.06 244.101V262.321H441.876V244.101C435.923 242.241 431.831 237.035 431.831 230.714Z" fill="black"/>
<path d="M527.815 201.338C527.815 213.609 517.77 224.02 505.121 224.02C492.844 224.02 482.427 213.981 482.427 201.338C482.427 189.067 492.472 178.655 505.121 178.655C517.77 179.027 527.815 189.067 527.815 201.338Z" fill="#807FD5"/>
<path d="M483.915 222.904C483.543 222.532 483.543 221.788 483.915 221.417C484.287 221.045 485.031 221.045 485.403 221.417C496.564 232.572 514.794 232.572 525.955 221.417C537.116 210.261 537.116 192.041 525.955 180.885C514.794 169.73 496.564 169.73 485.403 180.885C485.031 181.257 484.287 181.257 483.915 180.885C483.543 180.513 483.543 179.77 483.915 179.398C495.82 167.499 515.166 167.499 527.071 179.398C538.976 191.297 538.976 210.633 527.071 222.532C515.166 234.803 495.82 234.803 483.915 222.904Z" fill="black"/>
<path d="M505.121 213.608C504.377 213.608 503.633 213.236 502.889 212.864C502.145 212.492 502.145 211.749 502.145 211.005C502.145 210.261 502.517 209.518 502.889 209.146C503.633 208.774 504.005 208.402 505.121 208.402C505.865 208.402 506.609 208.774 507.353 209.146C507.725 209.518 508.098 210.261 508.098 211.005C508.098 211.749 507.725 212.492 507.353 212.864C506.609 213.608 505.865 213.608 505.121 213.608ZM507.726 192.413L507.353 203.94C507.353 205.055 506.237 206.171 505.121 206.171C504.005 206.171 502.889 205.427 502.889 203.94L502.517 192.413C502.517 191.297 503.633 190.182 504.749 190.182H505.493C506.609 190.182 507.726 191.297 507.726 192.413Z" fill="white"/>
</g>
<defs>
<clipPath id="clip0">
<rect width="600" height="600" fill="white"/>
</clipPath>
</defs>
</svg>
