<svg width="50" height="35" viewBox="0 0 50 35" fill="none" xmlns="http://www.w3.org/2000/svg">
<path d="M14.5418 34.5249C12.832 34.5249 11.3762 33.9248 10.1744 32.7247C8.97258 31.5295 8.37168 30.0745 8.37168 28.3598H4.37419C4.02401 28.3598 3.73137 28.2414 3.49627 28.0046C3.26117 27.7679 3.1428 27.4744 3.14116 27.1243C3.13951 26.7741 3.25788 26.4814 3.49627 26.2463C3.73466 26.0112 4.0273 25.8937 4.37419 25.8937H9.003C9.44853 24.7971 10.1678 23.906 11.1608 23.2205C12.1538 22.5366 13.2792 22.1946 14.5368 22.1946C15.7945 22.1946 16.9207 22.5366 17.9154 23.2205C18.9067 23.906 19.6252 24.7971 20.0707 25.8937H31.459L36.8745 2.46607H11.3606C11.0104 2.46607 10.7169 2.34769 10.4802 2.11095C10.2434 1.87421 10.1259 1.58075 10.1275 1.23057C10.1292 0.880386 10.2467 0.587746 10.4802 0.352648C10.7136 0.117549 11.0071 0 11.3606 0H37.4441C38.0754 0 38.59 0.253183 38.9879 0.759548C39.3874 1.26591 39.5156 1.82982 39.3726 2.45127L37.9595 8.63123H41.0939C41.7252 8.63123 42.3228 8.77262 42.8867 9.05539C43.4523 9.33652 43.9176 9.72616 44.2825 10.2243L48.7141 16.1379C49.0725 16.618 49.3051 17.1186 49.4119 17.6398C49.5205 18.1593 49.5287 18.7051 49.4366 19.2772L47.9619 26.7667C47.8698 27.2467 47.6364 27.6323 47.2615 27.9233C46.8867 28.2143 46.4609 28.3598 45.9841 28.3598H44.793C44.793 30.0679 44.1946 31.5229 42.9977 32.7247C41.8008 33.9265 40.3459 34.5266 38.6328 34.5249C36.9197 34.5233 35.4639 33.9232 34.2654 32.7247C33.0652 31.5278 32.4651 30.0728 32.4651 28.3598H20.702C20.702 30.0679 20.1036 31.5229 18.9067 32.7247C17.7099 33.9265 16.2549 34.5266 14.5418 34.5249ZM35.2197 20.345H46.6894L47.1259 18.1502L41.8535 11.0973H37.3702L35.2197 20.345ZM32.0558 23.4227L32.3764 21.9924C32.5901 21.0388 32.8614 19.8716 33.1902 18.4906C33.3759 17.7343 33.5387 17.0356 33.6785 16.3944C33.8166 15.7532 33.9267 15.2222 34.0089 14.8013L34.3295 13.371C34.5432 12.4175 34.8145 11.2502 35.1433 9.86919C35.4721 8.4882 35.7434 7.32093 35.9571 6.36738L36.2777 4.93706L36.8745 2.46607L31.4565 25.8937L32.0558 23.4227ZM1.68618 19.7236C1.34915 19.7236 1.0672 19.6052 0.840317 19.3685C0.613439 19.1317 0.5 18.8391 0.5 18.4906C0.5 18.142 0.617549 17.8486 0.852647 17.6102C1.08775 17.3718 1.38121 17.2542 1.73303 17.2575H10.3149C10.6651 17.2575 10.9586 17.3759 11.1953 17.6126C11.4321 17.8494 11.5496 18.1428 11.548 18.493C11.5463 18.8432 11.4288 19.1358 11.1953 19.3709C10.9619 19.606 10.6684 19.7236 10.3149 19.7236H1.68618ZM6.61831 11.1022C6.26813 11.1022 5.97467 10.9839 5.73792 10.7471C5.50118 10.5104 5.38281 10.2169 5.38281 9.86673C5.38281 9.51655 5.50118 9.22391 5.73792 8.98881C5.97467 8.75371 6.26731 8.63616 6.61584 8.63616H17.7131C18.0633 8.63616 18.3568 8.75453 18.5935 8.99127C18.8286 9.22802 18.9462 9.52148 18.9462 9.87166C18.9462 10.2218 18.8286 10.5145 18.5935 10.7496C18.3584 10.9847 18.065 11.1022 17.7131 11.1022H6.61831ZM14.5368 32.0589C15.5512 32.0589 16.4217 31.6963 17.1484 30.9713C17.8734 30.2447 18.2359 29.3741 18.2359 28.3598C18.2359 27.3454 17.8734 26.4749 17.1484 25.7482C16.4234 25.0215 15.5529 24.659 14.5368 24.6607C13.5208 24.6623 12.6503 25.0248 11.9253 25.7482C11.2003 26.4749 10.8377 27.3454 10.8377 28.3598C10.8377 29.3741 11.2003 30.2447 11.9253 30.9713C12.652 31.6963 13.5225 32.0589 14.5368 32.0589ZM38.6303 32.0589C39.6447 32.0589 40.5144 31.6963 41.2394 30.9713C41.9644 30.2447 42.3269 29.3741 42.3269 28.3598C42.3269 27.3454 41.9644 26.4749 41.2394 25.7482C40.5144 25.0215 39.6439 24.659 38.6278 24.6607C37.6118 24.6623 36.7421 25.0248 36.0187 25.7482C35.2921 26.4749 34.9287 27.3454 34.9287 28.3598C34.9287 29.3741 35.2913 30.2447 36.0163 30.9713C36.7429 31.6963 37.6143 32.0589 38.6303 32.0589Z" fill="black"/>
</svg>
