<svg width="49" height="48" viewBox="0 0 49 48" fill="none" xmlns="http://www.w3.org/2000/svg">
<rect x="6.23102" y="7.55685" width="37.7841" height="34.5455" fill="white"/>
<path d="M11.2932 5.76061e-05C9.91872 -0.00307395 8.55715 0.265341 7.28669 0.78989C6.01623 1.31444 4.86189 2.08479 3.88998 3.0567C2.91807 4.02861 2.14772 5.18294 1.62317 6.45341C1.09862 7.72387 0.830209 9.08544 0.83334 10.4599V37.0401C0.830209 38.4146 1.09862 39.7761 1.62317 41.0466C2.14772 42.3171 2.91807 43.4714 3.88998 44.4433C4.86189 45.4152 6.01623 46.1856 7.28669 46.7101C8.55715 47.2347 9.91872 47.5031 11.2932 47.4999H37.8734C39.2478 47.5031 40.6094 47.2347 41.8799 46.7101C43.1503 46.1856 44.3047 45.4152 45.2766 44.4433C46.2485 43.4714 47.0188 42.3171 47.5434 41.0466C48.0679 39.7761 48.3364 38.4146 48.3332 37.0401V10.4599C48.3364 9.08544 48.0679 7.72387 47.5434 6.45341C47.0188 5.18294 46.2485 4.02861 45.2766 3.0567C44.3047 2.08479 43.1503 1.31444 41.8799 0.78989C40.6094 0.265341 39.2478 -0.00307395 37.8734 5.76061e-05H11.2932ZM24.5833 8.2215C26.873 8.2215 29.1403 8.59716 31.2557 9.32704C33.3711 10.0569 35.2932 11.1267 36.9121 12.4753C38.5311 13.8239 39.8153 15.425 40.6913 17.187C41.5673 18.949 42.018 20.8375 42.0177 22.7446C42.0171 26.5955 40.18 30.2885 36.9104 33.0113C33.6409 35.7341 29.2068 37.2637 24.5833 37.2637C22.9133 37.2616 21.2523 37.0596 19.6512 36.664C17.5746 38.0404 15.1512 38.992 12.5698 39.4448C13.9004 38.1585 14.9306 36.717 15.6177 35.1797C13.0381 33.8914 10.9026 32.0693 9.41865 29.8903C7.93469 27.7113 7.15275 25.2497 7.14885 22.7446C7.14853 20.8375 7.59926 18.949 8.47528 17.187C9.3513 15.425 10.6355 13.8239 12.2544 12.4753C13.8734 11.1267 15.7955 10.0569 17.9109 9.32704C20.0263 8.59716 22.2936 8.2215 24.5833 8.2215Z" fill="#34C759"/>
</svg>
