<svg width="38" height="66" viewBox="0 0 38 66" fill="none" xmlns="http://www.w3.org/2000/svg">
<path d="M12.5815 0H27.6364C27.7055 0 27.7745 0.00460588 27.8436 0.013818C28.6036 0.0207271 29.2876 0.0495153 29.8956 0.100182C31.1565 0.203818 32.262 0.421455 33.2845 0.939637C34.9091 1.76837 36.2297 3.09011 37.0569 4.71545C37.5785 5.738 37.7962 6.84345 37.8998 8.10091C38 9.32727 38 10.8369 38 12.7093V52.9236C38 54.796 38 56.3091 37.8998 57.5285C37.7962 58.7895 37.5785 59.8949 37.0569 60.9175C36.2291 62.5415 34.9086 63.862 33.2845 64.6898C32.262 65.2115 31.1565 65.4291 29.8991 65.5327C28.6727 65.6329 27.1631 65.6329 25.2907 65.6329H12.7127C10.8404 65.6329 9.32727 65.6329 8.10782 65.5327C6.84691 65.4291 5.74146 65.2115 4.71891 64.6898C3.09357 63.8626 1.77182 62.542 0.94309 60.9175C0.424908 59.8949 0.207273 58.7895 0.103637 57.532C7.27109e-07 56.3091 0 54.796 0 52.9236V12.7127C0 10.8404 -6.69198e-07 9.32727 0.100181 8.10782C0.203818 6.84691 0.421454 5.74145 0.939636 4.71891C1.76778 3.09304 3.08958 1.77123 4.71545 0.943091C5.738 0.424909 6.84346 0.207273 8.10091 0.103636C8.70891 0.0529696 9.39406 0.0241822 10.1564 0.0172731L10.3636 0H12.5815ZM9.13382 3.496L8.38418 3.54436C7.34091 3.62727 6.73982 3.78618 6.28382 4.01764C5.30794 4.51458 4.51458 5.30793 4.01764 6.28382C3.78618 6.73982 3.62727 7.34091 3.54436 8.38418C3.45455 9.45164 3.45455 10.8196 3.45455 12.7818V52.8545C3.45455 54.8167 3.45455 56.1882 3.54436 57.2522C3.62727 58.2955 3.78618 58.8965 4.01764 59.3525C4.51458 60.3284 5.30794 61.1218 6.28382 61.6187C6.73982 61.8502 7.34091 62.0091 8.38418 62.092C9.45164 62.1818 10.8196 62.1818 12.7818 62.1818H25.2182C27.1804 62.1818 28.5484 62.1818 29.6158 62.092C30.6625 62.0091 31.2602 61.8502 31.7162 61.6187C32.6921 61.1218 33.4854 60.3284 33.9824 59.3525C34.2138 58.8965 34.3727 58.2955 34.4556 57.2522C34.5455 56.1882 34.5455 54.8167 34.5455 52.8545V12.7818C34.5455 10.8196 34.5455 9.45164 34.4556 8.38418C34.3727 7.34091 34.2138 6.73982 33.9824 6.28382C33.4854 5.30793 32.6921 4.51458 31.7162 4.01764C31.2602 3.78618 30.6625 3.62727 29.6158 3.54436L28.8662 3.496L28.5553 4.42873L28.4862 4.636C28.196 5.51345 27.9162 6.36327 27.3635 7.02655C26.8807 7.60375 26.2606 8.0504 25.5602 8.32545C24.7587 8.63982 23.864 8.63636 22.9416 8.63636H15.0584C14.136 8.63636 13.2413 8.63982 12.4398 8.32545C11.7394 8.0504 11.1193 7.60375 10.6365 7.02655C10.0838 6.36327 9.804 5.51345 9.51382 4.63945L9.44473 4.43218L9.13382 3.496ZM12.7611 3.45455C13.1342 4.57727 13.2136 4.72236 13.2862 4.80873C13.397 4.942 13.5396 5.04534 13.7007 5.10927C13.8113 5.15418 13.984 5.18182 15.2795 5.18182H22.7205C24.016 5.18182 24.1887 5.15418 24.2958 5.11273C24.4573 5.04782 24.5999 4.94327 24.7104 4.80873C24.7864 4.72236 24.8624 4.57727 25.2389 3.45455H12.7611Z" fill="#E64231"/>
<path d="M11 55.7273C11 55.2692 11.182 54.8298 11.5059 54.5059C11.8298 54.182 12.2692 54 12.7273 54H24.8182C25.2763 54 25.7156 54.182 26.0395 54.5059C26.3635 54.8298 26.5455 55.2692 26.5455 55.7273C26.5455 56.1854 26.3635 56.6247 26.0395 56.9486C25.7156 57.2726 25.2763 57.4545 24.8182 57.4545H12.7273C12.2692 57.4545 11.8298 57.2726 11.5059 56.9486C11.182 56.6247 11 56.1854 11 55.7273Z" fill="#E64231"/>
</svg>
