<svg width="37" height="45" viewBox="0 0 37 45" fill="none" xmlns="http://www.w3.org/2000/svg">
<path d="M8.31412 31.8319C4.37857 28.7438 1.84814 23.9429 1.84814 18.5516C1.84814 9.2347 9.40072 1.68213 18.7176 1.68213C28.0346 1.68213 35.5871 9.2347 35.5871 18.5516C35.5871 23.9429 33.0577 28.7438 29.1212 31.8319C28.8308 32.9914 28.5091 34.143 28.1566 35.2852C27.853 36.2755 27.0303 36.9949 25.9993 37.1031C24.617 37.247 22.286 37.4058 18.7176 37.4058C15.1492 37.4058 12.8183 37.247 11.436 37.1031C10.4049 36.9949 9.58231 36.2755 9.27866 35.2842C8.99387 34.3583 8.63365 33.1209 8.31412 31.8319Z" stroke="black" stroke-width="2.0126" stroke-linecap="round" stroke-linejoin="round"/>
<path d="M11.2633 37.0785C11.4647 38.3784 11.6741 39.5613 11.8488 40.496C12.0969 41.8109 13.0316 42.8667 14.3544 43.0661C15.3924 43.2239 16.8342 43.3599 18.7176 43.3599C20.5088 43.3599 21.9804 43.2368 23.1007 43.09C24.6726 42.8836 25.7741 41.5757 25.9447 39.9989L26.2633 37.0616M28.6409 17.5595C28.6409 12.0789 24.1982 7.63623 18.7176 7.63623" stroke="black" stroke-width="2.0126" stroke-linecap="round" stroke-linejoin="round"/>
</svg>
