<svg width="23" height="18" viewBox="0 0 23 18" fill="none" xmlns="http://www.w3.org/2000/svg">
<path d="M1.83337 4L9.99829 9.71544C10.6595 10.1783 10.9901 10.4097 11.3496 10.4993C11.6673 10.5785 11.9995 10.5785 12.3171 10.4993C12.6767 10.4097 13.0073 10.1783 13.6685 9.71544L21.8334 4M6.63337 17H17.0334C18.7135 17 19.5536 17 20.1953 16.673C20.7598 16.3854 21.2188 15.9265 21.5064 15.362C21.8334 14.7202 21.8334 13.8802 21.8334 12.2V5.8C21.8334 4.11984 21.8334 3.27976 21.5064 2.63803C21.2188 2.07354 20.7598 1.6146 20.1953 1.32698C19.5536 1 18.7135 1 17.0334 1H6.63337C4.95322 1 4.11314 1 3.4714 1.32698C2.90692 1.6146 2.44797 2.07354 2.16035 2.63803C1.83337 3.27976 1.83337 4.11984 1.83337 5.8V12.2C1.83337 13.8802 1.83337 14.7202 2.16035 15.362C2.44797 15.9265 2.90692 16.3854 3.4714 16.673C4.11314 17 4.95322 17 6.63337 17Z" stroke="white" stroke-width="2" stroke-linecap="round" stroke-linejoin="round"/>
</svg>
