<svg width="69" height="39" viewBox="0 0 69 39" fill="none" xmlns="http://www.w3.org/2000/svg">
<path d="M49.793 1.33594H67.6967V19.2397" stroke="white" stroke-width="2.0126" stroke-linecap="round" stroke-linejoin="round"/>
<path d="M1.19702 37.1434L20.5986 17.7418C21.0736 17.2667 21.6376 16.8898 22.2583 16.6326C22.879 16.3755 23.5443 16.2431 24.2161 16.2431C24.888 16.2431 25.5533 16.3755 26.174 16.6326C26.7947 16.8898 27.3586 17.2667 27.8336 17.7418L35.9447 25.8528C36.4197 26.328 36.9837 26.7049 37.6044 26.962C38.2251 27.2191 38.8903 27.3515 39.5622 27.3515C40.2341 27.3515 40.8993 27.2191 41.52 26.962C42.1407 26.7049 42.7047 26.328 43.1797 25.8528L65.139 3.89355" stroke="white" stroke-width="2.0126" stroke-linecap="round" stroke-linejoin="round"/>
</svg>
