<svg width="121" height="122" viewBox="0 0 121 122" fill="none" xmlns="http://www.w3.org/2000/svg">
<path d="M60.4448 0.567383C93.7906 0.567383 120.823 27.5995 120.823 60.9453C120.823 94.2912 93.7907 121.323 60.4448 121.323C27.099 121.323 0.0668945 94.2911 0.0668945 60.9453C0.0669255 27.5995 27.099 0.567414 60.4448 0.567383ZM40.103 35.4521C36.1159 35.4523 32.8735 38.6766 32.8735 42.6406V85.7676H40.103V67.7979H54.563V85.7676H61.7925V42.6406C61.7925 38.6766 58.5502 35.4522 54.563 35.4521H40.103ZM69.022 42.6406H79.8667V78.5791H69.022V85.7676H97.9419V78.5791H87.0972V42.6406H97.9419V35.4521H69.022V42.6406ZM54.563 60.6104H40.103V42.6406H54.563V60.6104Z" fill="#E64231"/>
</svg>
