<svg width="48" height="48" viewBox="0 0 48 48" fill="none" xmlns="http://www.w3.org/2000/svg">
<ellipse cx="22.9999" cy="25" rx="21" ry="22" fill="white"/>
<path d="M24.0834 0.5C36.9172 0.500017 47.3334 10.9162 47.3334 23.75C47.3334 36.5838 36.9172 47 24.0834 47C11.2495 47 0.833391 36.5838 0.833374 23.75C0.833374 10.9162 11.2495 0.5 24.0834 0.5ZM33.8441 13.8213C33.2983 13.8214 32.6626 13.9681 31.3822 14.4326C30.0928 14.9004 28.0932 15.7128 24.7953 17.0889C22.486 18.0412 17.8725 20.0385 10.9398 23.0537C10.3716 23.2841 9.90356 23.5212 9.56287 23.7725C9.23458 24.0146 8.93299 24.3376 8.88513 24.7617C8.84592 25.1048 8.94149 25.4097 9.14197 25.6602C9.3277 25.8921 9.58688 26.0565 9.84802 26.1846C10.3567 26.434 11.0792 26.6341 11.7894 26.8594V26.8604C12.4038 27.0651 13.1223 27.2831 13.7992 27.4531C14.4649 27.6203 15.127 27.7499 15.6127 27.7637V27.7646C16.4112 27.7896 17.2465 27.4877 18.1039 26.9658L18.473 26.7295C21.7145 24.5447 24.1649 22.901 25.8314 21.7979C26.6648 21.2462 27.3004 20.8313 27.7396 20.5518C27.85 20.4815 27.9484 20.4214 28.0326 20.3691C27.8771 20.5368 27.6824 20.741 27.4545 20.9697C26.8679 21.5585 26.0907 22.3038 25.3021 23.0479C23.7396 24.5222 22.1091 26.0153 21.9252 26.1992L21.9213 26.2021C21.7588 26.3674 21.5926 26.5264 21.4261 26.6846C21.2618 26.8408 21.0941 26.9991 20.9398 27.1543C20.6393 27.4567 20.3379 27.7967 20.1703 28.1768C19.9876 28.5911 19.968 29.0461 20.2123 29.5127C20.4096 29.8894 20.7634 30.2432 21.2601 30.5957L21.4818 30.7471C22.4871 31.4094 23.2859 31.9529 24.0961 32.5049C24.5013 32.7809 24.9092 33.0591 25.347 33.3545L26.7767 34.3086C27.1 34.5222 27.4038 34.7432 27.7162 34.9648C28.0237 35.183 28.3381 35.4007 28.6586 35.5879C29.3023 35.9639 30.0139 36.2426 30.847 36.1709L30.8549 36.1699L30.8617 36.1689C31.8244 36.0579 32.5687 35.1546 32.9115 33.3184V33.3174C33.6949 29.1153 35.2423 19.975 35.601 16.1973L35.6019 16.1855C35.616 15.9884 35.6087 15.7717 35.6029 15.6094C35.5998 15.5231 35.5977 15.454 35.597 15.3965C35.5963 15.3301 35.5982 15.3171 35.5961 15.3301L35.6088 15.2578L35.599 15.1855C35.5681 14.9388 35.4682 14.5282 35.0902 14.2217H35.0912C34.867 14.0349 34.6002 13.9396 34.389 13.8887C34.1737 13.8367 33.9732 13.8213 33.8441 13.8213Z" fill="#0088CC" stroke="black"/>
</svg>
