<svg width="48" height="48" viewBox="0 0 48 48" fill="none" xmlns="http://www.w3.org/2000/svg">
<rect x="0.833313" y="0.25" width="47" height="47" rx="8" fill="#25D366"/>
<path d="M40.5878 7.2566C38.5604 5.26593 36.1458 3.68754 33.4848 2.61339C30.8237 1.53925 27.9694 0.990834 25.0883 1.00012C13.0159 1.00012 3.1767 10.5676 3.1767 22.3066C3.1767 26.0691 4.19379 29.724 6.09529 32.949L2.99982 44L14.6079 41.033C17.8139 42.7315 21.4179 43.6345 25.0883 43.6345C37.1606 43.6345 46.9998 34.067 46.9998 22.3281C46.9998 16.6306 44.7224 11.2771 40.5878 7.2566ZM25.0883 40.0225C21.8159 40.0225 18.6099 39.1625 15.8018 37.55L15.1385 37.163L8.24002 38.926L10.0752 32.39L9.63298 31.7235C7.81449 28.9007 6.8491 25.6375 6.84705 22.3066C6.84705 12.5456 15.028 4.59061 25.0661 4.59061C29.9305 4.59061 34.5074 6.4396 37.9345 9.79359C39.6317 11.4359 40.9767 13.3896 41.8914 15.5412C42.8062 17.6929 43.2724 19.9998 43.2631 22.3281C43.3074 32.089 35.1264 40.0225 25.0883 40.0225ZM35.0822 26.7785C34.5295 26.5205 31.832 25.2306 31.3455 25.0371C30.837 24.8651 30.4832 24.7791 30.1074 25.2951C29.7315 25.8326 28.6923 27.0366 28.3827 27.3805C28.0732 27.746 27.7415 27.789 27.1888 27.5095C26.636 27.2515 24.8672 26.6711 22.7888 24.8651C21.1526 23.4461 20.0692 21.7046 19.7375 21.1671C19.428 20.6296 19.6933 20.3501 19.9807 20.0706C20.2239 19.8341 20.5335 19.4471 20.7988 19.1461C21.0641 18.8451 21.1747 18.6086 21.3516 18.2646C21.5285 17.8991 21.44 17.5981 21.3074 17.3401C21.1747 17.0821 20.0692 14.4591 19.6269 13.3841C19.1847 12.3521 18.7204 12.4811 18.3888 12.4596H17.3275C16.9516 12.4596 16.3767 12.5886 15.8682 13.1261C15.3817 13.6636 13.9667 14.9536 13.9667 17.5766C13.9667 20.1996 15.9345 22.7366 16.1998 23.0806C16.4651 23.4461 20.0692 28.821 25.5526 31.1215C26.8571 31.6805 27.8742 32.003 28.6702 32.2395C29.9747 32.648 31.1687 32.5835 32.1194 32.4545C33.1807 32.304 35.3697 31.1645 35.8119 29.9175C36.2762 28.6705 36.2762 27.617 36.1214 27.3805C35.9666 27.144 35.635 27.0365 35.0822 26.7785Z" fill="white"/>
</svg>
