<svg width="37" height="37" viewBox="0 0 37 37" fill="none" xmlns="http://www.w3.org/2000/svg">
<rect width="37" height="37" rx="18.5" fill="#0DC143"/>
<path d="M26.7869 10.1837C24.8036 8.14202 22.0619 7.03369 19.2619 7.03369C13.3119 7.03369 8.52855 11.8754 8.58688 17.767C8.58688 19.6337 9.11188 21.442 9.98688 23.0754L8.47021 28.617L14.1285 27.1587C15.7035 28.0337 17.4535 28.442 19.2035 28.442C25.0952 28.442 29.8786 23.6004 29.8786 17.7087C29.8786 14.8504 28.7702 12.167 26.7869 10.1837ZM19.2619 26.6337C17.6869 26.6337 16.1119 26.2254 14.7702 25.4087L14.4202 25.2337L11.0369 26.1087L11.9119 22.7837L11.6785 22.4337C9.11188 18.292 10.3369 12.8087 14.5369 10.242C18.7369 7.67536 24.1619 8.90036 26.7285 13.1004C29.2952 17.3004 28.0702 22.7254 23.8702 25.292C22.5286 26.167 20.8952 26.6337 19.2619 26.6337ZM24.3952 20.1587L23.7536 19.867C23.7536 19.867 22.8202 19.4587 22.2369 19.167C22.1786 19.167 22.1202 19.1087 22.0619 19.1087C21.8869 19.1087 21.7702 19.167 21.6536 19.2254C21.6536 19.2254 21.5952 19.2837 20.7786 20.217C20.7202 20.3337 20.6036 20.392 20.4869 20.392H20.4285C20.3702 20.392 20.2536 20.3337 20.1952 20.2754L19.9036 20.1587C19.2619 19.867 18.6786 19.517 18.2119 19.0504C18.0952 18.9337 17.9202 18.817 17.8035 18.7004C17.3952 18.292 16.9869 17.8254 16.6952 17.3004L16.6369 17.1837C16.5785 17.1254 16.5785 17.067 16.5202 16.9504C16.5202 16.8337 16.5202 16.717 16.5785 16.6587C16.5785 16.6587 16.8119 16.367 16.9869 16.192C17.1035 16.0754 17.1619 15.9004 17.2786 15.7837C17.3952 15.6087 17.4535 15.3754 17.3952 15.2004C17.3369 14.9087 16.6369 13.3337 16.4619 12.9837C16.3452 12.8087 16.2285 12.7504 16.0535 12.692H15.8785C15.7619 12.692 15.5869 12.692 15.4119 12.692C15.2952 12.692 15.1785 12.7504 15.0619 12.7504L15.0035 12.8087C14.8869 12.867 14.7702 12.9837 14.6535 13.042C14.5369 13.1587 14.4785 13.2754 14.3619 13.392C13.9535 13.917 13.7202 14.5587 13.7202 15.2004C13.7202 15.667 13.8369 16.1337 14.0119 16.542L14.0702 16.717C14.5952 17.8254 15.2952 18.817 16.2285 19.692L16.4619 19.9254C16.6369 20.1004 16.8119 20.217 16.9285 20.392C18.1536 21.442 19.5536 22.2004 21.1286 22.6087C21.3036 22.667 21.5369 22.667 21.7119 22.7254C21.8869 22.7254 22.1202 22.7254 22.2952 22.7254C22.5869 22.7254 22.9369 22.6087 23.1702 22.492C23.3452 22.3754 23.4619 22.3754 23.5786 22.2587L23.6952 22.142C23.8119 22.0254 23.9286 21.967 24.0452 21.8504C24.1619 21.7337 24.2786 21.617 24.3369 21.5004C24.4536 21.267 24.5119 20.9754 24.5702 20.6837C24.5702 20.567 24.5702 20.392 24.5702 20.2754C24.5702 20.2754 24.5119 20.217 24.3952 20.1587Z" fill="white"/>
</svg>
