<svg width="20" height="15" viewBox="0 0 20 15" fill="none" xmlns="http://www.w3.org/2000/svg">
<g clip-path="url(#clip0_8786_2443)">
<path d="M0.00195312 0.811523H23.004V14.8115H0.00195312V0.811523Z" fill="white"/>
<path d="M0.00195312 0.811523H23.004V1.75777H0.00195312V0.811523ZM0.00195312 2.70402H23.004V3.65027H0.00195312V2.70402ZM0.00195312 4.59644H23.004V5.54269H0.00195312V4.59644ZM0.00195312 6.48894H23.004V7.43519H0.00195312V6.48894ZM0.00195312 8.38136H23.004V9.32761H0.00195312V8.38136ZM0.00195312 10.2739H23.004V11.2201H0.00195312V10.2739ZM0.00195312 12.1663H23.004V13.1125H0.00195312V12.1663Z" fill="#B22234"/>
<path d="M0.0332031 13.8916H23.0353V14.8379H0.0332031V13.8916ZM0.0332031 15.7841H23.0353V16.7303H0.0332031V15.7841ZM0.0332031 17.6765H23.0353V18.6228H0.0332031V17.6765ZM0.0332031 19.569H23.0353V20.5153H0.0332031V19.569ZM0.0332031 21.4614H23.0353V22.4077H0.0332031V21.4614ZM0.0332031 23.3539H23.0353V24.3002H0.0332031V23.3539ZM0.0332031 25.2464H23.0353V26.1926H0.0332031V25.2464Z" fill="#B22234"/>
<path d="M0.00195312 0.811523H9.20278V7.43511H0.00195312V0.811523Z" fill="#3C3B6E"/>
<path d="M0.433594 1.34966L0.652803 1.51147L0.569076 1.77331L0.788209 1.6115L1.00742 1.77331L0.923691 1.51147L1.14282 1.34966H0.871936L0.788209 1.08789L0.704481 1.34966H0.433594ZM1.95901 1.34966L2.17815 1.51147L2.09442 1.77331L2.31363 1.6115L2.53284 1.77331L2.44911 1.51147L2.66824 1.34966H2.39736L2.31363 1.08789L2.2299 1.34966H1.95901ZM3.48443 1.34966L3.70357 1.51147L3.61984 1.77331L3.83905 1.6115L4.05818 1.77331L3.97445 1.51147L4.19366 1.34966H3.92278L3.83905 1.08789L3.75532 1.34966H3.48443ZM5.00985 1.34966L5.22899 1.51147L5.14526 1.77331L5.36447 1.6115L5.5836 1.77331L5.49987 1.51147L5.71908 1.34966H5.44812L5.36447 1.08789L5.28074 1.34966H5.00985ZM6.5352 1.34966L6.75441 1.51147L6.67068 1.77331L6.88981 1.6115L7.10902 1.77331L7.02529 1.51147L7.24443 1.34966H6.97354L6.88981 1.08789L6.80608 1.34966H6.5352ZM8.06062 1.34966L8.27975 1.51147L8.19602 1.77331L8.41523 1.6115L8.63437 1.77331L8.55064 1.51147L8.76985 1.34966H8.49896L8.41523 1.08789L8.3315 1.34966H8.06062ZM1.19627 2.01396L1.41548 2.17577L1.33175 2.43754L1.55096 2.27573L1.77009 2.43754L1.68636 2.17577L1.90557 2.01396H1.63461L1.55096 1.75212L1.46723 2.01396H1.19627ZM2.72169 2.01396L2.9409 2.17577L2.85717 2.43754L3.0763 2.27573L3.29551 2.43754L3.21178 2.17577L3.43092 2.01396H3.16003L3.0763 1.75212L2.99257 2.01396H2.72169ZM4.24711 2.01396L4.46632 2.17577L4.38259 2.43754L4.60172 2.27573L4.82093 2.43754L4.7372 2.17577L4.95634 2.01396H4.68545L4.60172 1.75212L4.51799 2.01396H4.24711ZM5.77253 2.01396L5.99166 2.17577L5.90793 2.43754L6.12714 2.27573L6.34627 2.43754L6.26255 2.17577L6.48176 2.01396H6.21087L6.12714 1.75212L6.04341 2.01396H5.77253ZM7.29787 2.01396L7.51708 2.17577L7.43335 2.43754L7.65248 2.27573L7.87169 2.43754L7.78797 2.17577L8.0071 2.01396H7.73621L7.65248 1.75212L7.56883 2.01396H7.29787ZM0.433594 2.67819L0.652803 2.84L0.569076 3.10184L0.788209 2.94003L1.00742 3.10184L0.923691 2.84L1.14282 2.67819H0.871936L0.788209 2.41643L0.704481 2.67819H0.433594ZM1.95901 2.67819L2.17815 2.84L2.09442 3.10184L2.31363 2.94003L2.53284 3.10184L2.44911 2.84L2.66824 2.67819H2.39736L2.31363 2.41643L2.2299 2.67819H1.95901ZM3.48443 2.67819L3.70357 2.84L3.61984 3.10184L3.83905 2.94003L4.05818 3.10184L3.97445 2.84L4.19366 2.67819H3.92278L3.83905 2.41643L3.75532 2.67819H3.48443ZM5.00985 2.67819L5.22899 2.84L5.14526 3.10184L5.36447 2.94003L5.5836 3.10184L5.49987 2.84L5.71908 2.67819H5.44812L5.36447 2.41643L5.28074 2.67819H5.00985ZM6.5352 2.67819L6.75441 2.84L6.67068 3.10184L6.88981 2.94003L7.10902 3.10184L7.02529 2.84L7.24443 2.67819H6.97354L6.88981 2.41643L6.80608 2.67819H6.5352ZM8.06062 2.67819L8.27975 2.84L8.19602 3.10184L8.41523 2.94003L8.63437 3.10184L8.55064 2.84L8.76985 2.67819H8.49896L8.41523 2.41643L8.3315 2.67819H8.06062ZM1.21513 3.34468L1.43426 3.50649L1.35061 3.76825L1.56974 3.60644L1.78895 3.76825L1.70522 3.50641L1.92436 3.34468H1.65347L1.56974 3.08283L1.48601 3.34468H1.21513ZM2.74055 3.34468L2.95968 3.50649L2.87595 3.76825L3.09516 3.60644L3.3143 3.76825L3.23057 3.50641L3.44978 3.34468H3.17889L3.09516 3.08283L3.01143 3.34468H2.74055ZM4.26597 3.34468L4.4851 3.50649L4.40137 3.76825L4.62058 3.60644L4.83972 3.76825L4.75599 3.50641L4.9752 3.34468H4.70423L4.62058 3.08283L4.53685 3.34468H4.26597ZM5.79131 3.34468L6.01052 3.50649L5.92679 3.76825L6.14593 3.60644L6.36514 3.76825L6.28141 3.50641L6.50054 3.34468H6.22965L6.14593 3.08283L6.0622 3.34468H5.79131ZM7.31673 3.34468L7.53586 3.50649L7.45214 3.76825L7.67135 3.60644L7.89048 3.76825L7.80675 3.50641L8.02596 3.34468H7.75507L7.67135 3.08283L7.58762 3.34468H7.31673ZM0.456749 4.00337L0.675959 4.16511L0.592231 4.42695L0.811364 4.26514L1.03057 4.42695L0.946846 4.16511L1.16598 4.00337H0.895092L0.811364 3.74153L0.727637 4.00337H0.456749ZM1.98217 4.00337L2.2013 4.16511L2.11757 4.42695L2.33678 4.26514L2.55592 4.42695L2.47227 4.16511L2.6914 4.00337H2.42051L2.33678 3.74153L2.25306 4.00337H1.98217ZM3.50759 4.00337L3.72672 4.16511L3.64299 4.42695L3.8622 4.26514L4.08134 4.42695L3.99761 4.16511L4.21682 4.00337H3.94593L3.8622 3.74153L3.77848 4.00337H3.50759ZM5.03293 4.00337L5.25214 4.16511L5.16841 4.42695L5.38755 4.26514L5.60676 4.42695L5.52303 4.16511L5.74224 4.00337H5.47128L5.38755 3.74153L5.3039 4.00337H5.03293ZM6.55835 4.00337L6.77749 4.16511L6.69383 4.42695L6.91297 4.26514L7.13218 4.42695L7.04845 4.16511L7.26758 4.00337H6.9967L6.91297 3.74153L6.82924 4.00337H6.55835ZM8.08377 4.00337L8.30291 4.16511L8.21918 4.42695L8.43839 4.26514L8.65752 4.42695L8.57379 4.16511L8.793 4.00337H8.52211L8.43839 3.74153L8.35466 4.00337H8.08377ZM0.471087 5.3108L0.69022 5.47261L0.606493 5.73445L0.825702 5.57264L1.04484 5.73445L0.961108 5.47261L1.18032 5.3108H0.90943L0.825702 5.04903L0.741975 5.3108H0.471087ZM1.99643 5.3108L2.21564 5.47261L2.13191 5.73445L2.35105 5.57264L2.57026 5.73445L2.48653 5.47261L2.70566 5.3108H2.43477L2.35105 5.04903L2.26732 5.3108H1.99643ZM3.52185 5.3108L3.74098 5.47261L3.65733 5.73445L3.87647 5.57264L4.09568 5.73445L4.01195 5.47261L4.23108 5.3108H3.96019L3.87647 5.04903L3.79274 5.3108H3.52185ZM5.04727 5.3108L5.2664 5.47261L5.18268 5.73445L5.40189 5.57264L5.62102 5.73445L5.53737 5.47261L5.7565 5.3108H5.48561L5.40189 5.04903L5.31816 5.3108H5.04727ZM6.57261 5.3108L6.79182 5.47261L6.7081 5.73445L6.92723 5.57264L7.14644 5.73445L7.06271 5.47261L7.28192 5.3108H7.01096L6.92723 5.04903L6.84358 5.3108H6.57261ZM8.09803 5.3108L8.31717 5.47261L8.23352 5.73445L8.45265 5.57264L8.67186 5.73445L8.58813 5.47261L8.80726 5.3108H8.53638L8.45265 5.04903L8.36892 5.3108H8.09803ZM0.452455 6.63364L0.671588 6.79545L0.587861 7.0573L0.807071 6.89549L1.0262 7.0573L0.942476 6.79545L1.16169 6.63364H0.890721L0.807071 6.37188L0.723343 6.63364H0.452455ZM1.9778 6.63364L2.19701 6.79545L2.11328 7.0573L2.33241 6.89549L2.55162 7.0573L2.4679 6.79545L2.68703 6.63364H2.41614L2.33241 6.37188L2.24869 6.63364H1.9778ZM3.50322 6.63364L3.72235 6.79545L3.6387 7.0573L3.85783 6.89549L4.07704 7.0573L3.99332 6.79545L4.21245 6.63364H3.94156L3.85783 6.37188L3.77411 6.63364H3.50322ZM5.02864 6.63364L5.24777 6.79545L5.16404 7.0573L5.38325 6.89549L5.60239 7.0573L5.51874 6.79545L5.73787 6.63364H5.46698L5.38325 6.37188L5.29953 6.63364H5.02864ZM6.55398 6.63364L6.77319 6.79545L6.68946 7.0573L6.9086 6.89549L7.12781 7.0573L7.04408 6.79545L7.26329 6.63364H6.99232L6.9086 6.37188L6.82495 6.63364H6.55398ZM8.0794 6.63364L8.29853 6.79545L8.21488 7.0573L8.43402 6.89549L8.65323 7.0573L8.5695 6.79545L8.78863 6.63364H8.51775L8.43402 6.37188L8.35029 6.63364H8.0794ZM1.21965 4.65054L1.43878 4.81235L1.35513 5.07412L1.57427 4.91231L1.79348 5.07412L1.70975 4.81235L1.92888 4.65054H1.65799L1.57427 4.3887L1.49054 4.65054H1.21965ZM2.74507 4.65054L2.9642 4.81235L2.88048 5.07412L3.09969 4.91231L3.31882 5.07412L3.23517 4.81235L3.4543 4.65054H3.18341L3.09969 4.3887L3.01596 4.65054H2.74507ZM4.27049 4.65054L4.48962 4.81235L4.4059 5.07412L4.62511 4.91231L4.84424 5.07412L4.76051 4.81235L4.97972 4.65054H4.70883L4.62511 4.3887L4.54138 4.65054H4.27049ZM5.79583 4.65054L6.01504 4.81235L5.93132 5.07412L6.15045 4.91231L6.36966 5.07412L6.28593 4.81235L6.50506 4.65054H6.23418L6.15045 4.3887L6.06672 4.65054H5.79583ZM7.32125 4.65054L7.54039 4.81235L7.45666 5.07412L7.67587 4.91231L7.895 5.07412L7.81135 4.81235L8.03048 4.65054H7.7596L7.67587 4.3887L7.59214 4.65054H7.32125ZM1.21513 5.97129L1.43434 6.1331L1.35061 6.39494L1.56974 6.23313L1.78895 6.39494L1.70522 6.1331L1.92436 5.97129H1.65347L1.56974 5.70952L1.48601 5.97129H1.21513ZM2.74055 5.97129L2.95968 6.1331L2.87595 6.39494L3.09516 6.23313L3.31437 6.39494L3.23064 6.1331L3.44978 5.97129H3.17889L3.09516 5.70952L3.01143 5.97129H2.74055ZM4.26597 5.97129L4.4851 6.1331L4.40137 6.39494L4.62058 6.23313L4.83972 6.39494L4.75599 6.1331L4.9752 5.97129H4.70431L4.62058 5.70952L4.53685 5.97129H4.26597ZM5.79131 5.97129L6.01052 6.1331L5.92679 6.39494L6.14593 6.23313L6.36514 6.39494L6.28141 6.1331L6.50054 5.97129H6.22965L6.14593 5.70952L6.0622 5.97129H5.79131ZM7.31673 5.97129L7.53586 6.1331L7.45214 6.39494L7.67135 6.23313L7.89048 6.39494L7.80683 6.1331L8.02596 5.97129H7.75507L7.67135 5.70952L7.58762 5.97129H7.31673Z" fill="white"/>
</g>
<defs>
<clipPath id="clip0_8786_2443">
<rect y="0.762695" width="20" height="14" rx="2" fill="white"/>
</clipPath>
</defs>
</svg>
